<?xml version="1.0" encoding="UTF-8"?>
<svg width="178px" height="576px" viewBox="0 0 178 576" version="1.1" xmlns="http://www.w3.org/2000/svg" xmlns:xlink="http://www.w3.org/1999/xlink">
    <!-- Generator: Sketch 43.2 (39069) - http://www.bohemiancoding.com/sketch -->
    <title>Artboard Copy 5</title>
    <desc>Created with Sketch.</desc>
    <defs></defs>
    <g id="Page-1" stroke="none" stroke-width="1" fill="none" fill-rule="evenodd">
        <g id="Artboard-Copy-5" fill="#FFFFFF">
            <g id="Group-4" transform="translate(46.000000, 325.000000)" font-size="34" font-family="ProximaNova-Light, Proxima Nova" font-weight="300">
                <text id="Babel">
                    <tspan x="0.721" y="34">Babel</tspan>
                </text>
            </g>
            <text id="Webpack" font-family="ProximaNova-Light, Proxima Nova" font-size="34" font-weight="300">
                <tspan x="20.065" y="142">Webpack</tspan>
            </text>
            <text id="Typescript" font-family="ProximaNova-Light, Proxima Nova" font-size="34" font-weight="300">
                <tspan x="14.173" y="569">Typescript</tspan>
            </text>
            <g id="Group-11" transform="translate(45.000000, 10.000000)" fill-rule="nonzero">
                <path d="M44.3877551,0 L88.7755102,24.9971451 L88.7755102,75.0028549 L44.3877551,100 L0,75.0028549 L0,24.9971451 L44.3877551,0 Z M81.2542843,73.2047973 L81.2542843,73.2047973 L67.9429786,65.6444512 L45.9388116,77.5542736 L45.9388116,92.8571429 L81.2542843,73.2047973 Z M83.6734694,71.0528313 L83.6734694,29.9605283 L70.7557154,37.3045392 L70.7557154,63.7202065 L83.6734694,71.0528313 L83.6734694,71.0528313 Z M7.52122593,73.2047973 L42.8366986,92.8571429 L42.8366986,77.5542736 L20.8209565,65.6444512 L7.52122593,73.2047973 L7.52122593,73.2047973 Z M5.10204082,71.0528313 L18.0197948,63.7202065 L18.0197948,37.3045392 L5.10204082,29.9605283 L5.10204082,71.0528313 Z M6.61837216,27.2961895 L6.61837216,27.2961895 L19.4435258,34.5946561 L19.6287266,34.4921816 L42.8366986,21.9333536 L42.8366986,7.14285714 L6.61837216,27.2961895 Z M82.157138,27.2961895 L45.9388116,7.14285714 L45.9388116,21.9333536 L69.1467836,34.4807955 L69.3319844,34.5832701 L82.157138,27.2961895 Z M42.8571429,74.4897959 L42.8571429,51.5721705 L21.4285714,39.1124374 L21.4285714,62.6168093 L42.8571429,74.4897959 Z M45.9183673,74.4897959 L67.3469388,62.6283141 L67.3469388,39.1124374 L45.9183673,51.5721705 L45.9183673,74.4897959 Z M22.8792263,36.3972971 L22.8792263,36.3972971 L44.3877551,48.9030495 L65.8962839,36.3972971 L44.3877551,24.4897959 L22.8792263,36.3972971 Z" id="Combined-Shape"></path>
            </g>
            <path d="M119.687292,248.600809 L119.698036,248.77643 L120.052612,248.743501 C120.041867,248.633738 120.084846,248.458117 120.160059,248.23859 L120.127825,247.920277 C119.977399,247.931254 119.826973,248.161756 119.687292,248.600809 L119.687292,248.600809 Z M116.29196,240.25881 L116.259726,239.940497 L115.754724,239.984402 L115.786958,240.302715 L116.29196,240.25881 Z M106.439052,259.105142 C106.417562,258.808781 105.515006,257.656268 103.731382,255.62565 C103.699148,255.252455 104.311597,254.692663 105.568729,253.95725 L109.157466,250.763143 C109.96332,249.720393 110.436087,248.03004 110.575769,245.681109 L110.53279,245.14327 C110.393109,243.518775 109.243423,242.212594 107.062245,241.213749 C105.772879,240.324668 103.452019,239.830734 100.099667,239.742923 C97.3275287,239.984402 93.706558,240.994223 89.2474991,242.783362 C88.022601,243.68342 86.6257873,244.583478 85.0570582,245.483536 L85.0785476,245.757943 C85.1752501,245.746967 85.3256762,245.692085 85.4975917,245.571346 C85.6802519,245.549393 85.7876991,245.637204 85.7984439,245.812825 L86.0670619,245.670133 L86.1959985,245.659157 L86.2067432,245.779896 C86.217488,245.922588 85.2504631,246.701906 83.294924,248.095898 L83.4453501,248.381282 L83.3164135,248.392259 L82.9940719,248.271519 C83.0048166,248.370306 82.8651352,248.436164 82.5965172,248.458117 L82.6072619,248.578856 L82.9188588,248.974003 C82.8221564,248.98498 82.6717303,248.941075 82.4675806,248.86424 C82.0163023,248.908146 81.5757688,249.149624 81.1352353,249.61063 L81.3178955,248.798382 C81.9733235,245.911612 82.4246017,243.354131 82.6609856,241.136915 L82.6287514,240.994223 C82.1774731,240.697863 81.7369396,240.280763 81.3286402,239.753899 C81.339385,239.413634 81.339385,239.21606 81.3286402,239.172155 L81.2964061,239.051415 L81.1674694,239.084344 C79.7491664,241.257655 77.0200074,244.967649 72.9692479,250.214327 C69.8855132,253.946274 68.2952946,256.020797 68.1985921,256.437897 C66.9414598,257.766031 66.3397555,258.567302 66.4042238,258.84171 C66.0711375,259.061236 65.9314561,259.280763 65.9851797,259.522241 C65.8884772,259.544194 65.8240089,259.511265 65.8025195,259.412478 C65.2652834,260.30156 64.4701741,260.872328 63.4064468,261.124783 L62.2889959,261.388215 C62.1385698,261.421144 62.0633568,261.530907 62.0741015,261.717504 L62.1063357,261.860196 L62.5253798,261.76141 L62.5576139,261.882149 L61.6120785,262.255344 L59.9359022,262.650491 L59.0548351,262.705373 C58.9258985,262.837088 59.7532419,262.694396 59.4309003,262.771231 L58.3349389,263.034662 C57.6687662,263.18833 57.3034457,263.133449 57.2389774,262.859041 L57.1100408,262.89197 C57.1315302,263.012709 57.1422749,263.10052 57.1207855,263.177354 L57.0563172,262.902946 L56.1752501,263.111496 C56.1107818,262.694396 54.9181178,261.179665 52.608003,258.567302 C52.5650241,258.062392 53.3816228,257.326979 55.0470545,256.372039 L59.7532419,252.146158 C60.8062245,250.763143 61.4294183,248.545927 61.633568,245.494512 L61.5690997,244.781051 C61.3864394,242.629694 59.8606891,240.895436 56.9918488,239.556326 C55.294183,238.38186 52.2426825,237.75621 47.8373472,237.657423 C44.1841423,237.975737 39.4134865,239.303871 33.5468692,241.619873 C31.9351612,242.816291 30.097814,244.001733 28.0348277,245.176199 L28.0670619,245.549393 C28.2067432,245.538417 28.3894035,245.461583 28.6150426,245.329867 C28.8514265,245.307915 28.9803631,245.417678 29.0018525,245.637204 L29.367173,245.428654 L29.5498333,245.417678 L29.560578,245.593299 C29.5713227,245.76892 28.292701,246.789717 25.7032234,248.65569 L25.9073731,248.98498 L25.7247129,248.995956 L25.3271582,248.853264 C25.3379029,248.963027 25.1552427,249.039861 24.7791775,249.07279 L24.8006669,249.270364 L25.2304557,249.753322 C25.0907744,249.764298 24.8973694,249.720393 24.6502408,249.632582 C23.8121526,249.709417 22.9955539,250.32409 22.1896999,251.487579 L22.3938496,251.816869 C23.0922564,251.15829 23.5005558,250.829001 23.6187477,250.818024 L23.6617266,251.355864 C23.5435346,251.36684 23.3608744,251.443674 23.1137458,251.57539 L23.5542794,252.255921 C24.4031123,251.322935 25.3379029,250.521664 26.3586514,249.852109 C26.8636532,249.983824 27.1322712,250.148469 27.1430159,250.32409 L27.5298259,250.291161 C30.3019637,248.194685 33.0418674,246.679954 35.7602816,245.746967 L35.7925157,246.120162 C35.2875139,246.888504 34.9436828,247.283651 34.7610226,247.305604 C34.782512,247.569035 34.8684698,247.799538 35.0296406,247.997111 C35.0726195,248.469093 33.8369767,251.652224 31.3334568,257.535529 C25.6494998,271.212016 20.878844,281.332178 17,287.874061 C17.0107447,288.005777 17.0859578,288.181398 17.2256391,288.400924 C18.1819192,288.170422 18.7836236,287.928943 19.0414969,287.69844 L19.2456465,287.676488 L19.2778807,288.049682 L19.6324565,288.016753 L19.997777,287.808203 C20.0085217,287.917966 20.1267136,287.972848 20.3738422,287.950895 L20.4060763,288.32409 C20.4383105,288.686308 20.2341608,289.235124 19.804372,289.99249 C19.4175621,290.442519 18.998518,291.386482 18.5579844,292.824379 L18.5687292,293 L18.9233049,292.967071 C20.4705446,291.199884 21.6417192,289.465627 22.4475732,287.775274 C26.9603557,286.425188 30.3986662,285.097054 32.7839941,283.790872 C35.1800667,283.582322 37.0066691,282.93472 38.2530567,281.870017 L38.2315672,281.672444 L37.3290107,281.946852 L37.1248611,281.968804 L37.1033716,281.771231 C38.8655057,281.496823 40.0796591,281.101675 40.7565765,280.55286 C44.1841423,277.852686 46.7736199,275.942808 48.5250093,274.812247 C52.1244906,272.112074 54.4668396,269.477759 55.5305669,266.920277 C55.7239718,266.876372 55.9173768,266.832467 56.1322712,266.777585 C56.6372731,266.755633 56.9166358,266.744656 56.9918488,266.722704 C56.9703594,266.623917 57.0133383,266.569035 57.1100408,266.547083 C57.9158948,266.459272 57.5290848,266.601964 58.0448314,266.481225 L59.3986662,266.162912 L59.6243053,266.10803 L59.5168581,266.173888 C59.6672842,266.195841 59.828455,266.184864 60.0111152,266.140959 L60.1078177,266.547083 L53.951093,276.546505 L52.5865135,278.291739 L51.9203409,280.574812 L52.0492775,280.541883 L52.7154502,280.256499 L52.5005558,281.145581 L52.5650241,281.409012 L52.7476843,281.639515 C52.6617266,281.661467 52.6294924,281.716349 52.6509818,281.815136 L52.683216,281.957828 L52.9625787,281.89197 C53.3708781,281.529752 53.5427936,281.200462 53.4783253,280.904102 C53.9188588,280.980936 54.2089663,281.013865 54.3593924,280.96996 L54.3916265,281.112652 C54.1230085,281.17851 53.9833272,281.398036 53.9618377,281.771231 L53.9940719,281.913923 L54.144498,281.880994 C56.3793998,279.38937 61.8592071,270.860774 66.2537977,265.076256 C66.1141163,264.450607 68.4027418,263.583478 73.1304187,262.463894 L73.2808448,262.430965 C73.4527603,263.18833 73.0874398,265.021375 72.1848833,267.930098 C71.6046684,269.686308 71.3253057,270.652224 71.3682845,270.805893 C70.6161541,273.143847 70.2615784,274.406124 70.3045572,274.603697 L68.6283809,280.212594 C67.5431641,283.088388 66.7158207,286.106875 66.1356058,289.290006 C66.2323083,289.268053 66.3827343,289.279029 66.5976288,289.333911 L66.8340126,289.125361 C66.855502,289.224148 66.9199704,289.257077 67.0166728,289.235124 L66.9199704,288.829001 L67.6506113,288.807048 C67.8655057,288.752166 68.048166,288.477759 68.1985921,287.972848 C68.1663579,287.215482 68.316784,286.809359 68.6498703,286.721548 C69.1011486,284.921433 69.3805113,284.021375 69.4772138,283.988446 C69.8962579,282.199307 70.2078548,281.17851 70.4120044,280.926054 C71.0459429,278.599076 71.5079659,277.402657 71.8088181,277.325823 L71.8732864,277.611207 L71.4112634,278.829578 C70.6054094,282.484691 69.7888107,285.371462 68.9614672,287.48989 L69.1978511,288.543616 L69.3482771,288.510687 C71.3467951,284.120162 74.2263801,275.426921 77.9762875,262.430965 C78.0837347,261.289428 78.6209707,260.400347 79.5772508,259.774697 L79.3623564,259.544194 L79.3301223,259.423455 C79.7599111,259.324668 80.0607632,259.149047 80.2326788,258.907568 C80.2111893,258.808781 79.8351241,258.666089 79.1044831,258.468515 L80.9740645,250.280185 C81.3823638,249.90699 81.6187477,249.709417 81.6939607,249.709417 L81.7261949,250.126516 C81.6294924,250.137493 81.4790663,250.192374 81.3071508,250.313114 L81.6617266,250.829001 C82.3064098,250.11554 83.0048166,249.500867 83.7676917,248.98498 C84.1545017,249.094743 84.3479066,249.226459 84.3693961,249.358174 L84.6487588,249.336222 C86.7762134,247.744656 88.8606891,246.60312 90.9129307,245.911612 L90.9344202,246.18602 C90.5583549,246.767764 90.3004817,247.064125 90.1608003,247.075101 C90.1822897,247.272675 90.2360133,247.448296 90.3327158,247.601964 C90.36495,247.964183 89.440904,250.378972 87.5498333,254.857308 C83.2304557,265.229925 79.609485,272.902369 76.6654316,277.885615 C76.6761764,277.984402 76.7406447,278.116118 76.8588366,278.291739 C77.5787329,278.116118 78.0407558,277.929521 78.2234161,277.753899 L78.3523527,277.742923 L78.3738422,278.017331 L78.6746943,277.995378 L78.9433123,277.852686 C78.9540571,277.929521 79.0507595,277.962449 79.2334198,277.951473 L79.2549092,278.247834 C79.2763987,278.511265 79.1259726,278.928365 78.7928863,279.499133 C78.4812894,279.839399 78.1589478,280.55286 77.8151167,281.639515 L77.8258614,281.782207 L78.1052242,281.760254 C79.2763987,280.421144 80.1682104,279.103986 80.7806595,277.808781 C84.2082253,276.777008 86.8191923,275.778163 88.6243053,274.790295 C90.4616525,274.62565 91.8477214,274.142692 92.7932568,273.330445 L92.782512,273.187753 L92.0841052,273.396303 L91.9336791,273.407279 L91.9229344,273.264587 C93.2552797,273.067013 94.1900704,272.759676 94.6950722,272.353553 C97.2952946,270.311958 99.2615784,268.852109 100.593924,267.995956 C104.741386,264.911612 106.675435,261.948007 106.439052,259.105142 L106.439052,259.105142 Z M105.7299,259.291739 L105.826602,260.400347 C105.697666,260.674754 105.557984,260.817447 105.429048,260.828423 L105.267877,258.940497 C105.568729,259.05026 105.719155,259.160023 105.7299,259.291739 L105.7299,259.291739 Z M24.3708781,250.357019 L24.1882179,250.367995 L24.1559837,250.02773 L24.8973694,249.961872 L24.9081141,250.137493 C24.7899222,250.148469 24.6072619,250.214327 24.3708781,250.357019 Z M20.7499074,287.358174 C20.3201186,287.160601 19.9333086,287.083767 19.6002223,287.116696 L19.5572434,286.578856 C19.535754,286.370306 19.6539459,286.227614 19.9118192,286.172733 C20.148203,286.15078 20.2878844,286.326401 20.3093738,286.677643 C20.9325676,285.898325 21.2763987,285.503177 21.340867,285.492201 L21.7384216,285.656846 C21.609485,286.754477 21.2763987,287.314269 20.7499074,287.358174 Z M59.4416451,246.010399 C59.2589848,246.032351 58.8936643,245.450607 58.367173,244.298094 L58.3349389,243.957828 C58.6787699,243.924899 59.0333457,244.495667 59.4094109,245.670133 L59.4416451,246.010399 Z M58.9258985,241.916233 L58.7754724,242.278452 L53.5213042,240.039284 C57.024083,240.160023 58.829196,240.785673 58.9258985,241.916233 Z M36.7380511,261.377239 L35.9966654,261.443096 L35.9644313,261.102831 L36.705817,261.036973 L36.7380511,261.377239 Z M36.1363468,249.687464 L36.319007,249.676488 L36.3619859,250.214327 C36.1900704,250.225303 35.9644313,250.488735 35.6850685,250.993645 L35.6528344,250.620451 C35.9859207,250.214327 36.1578362,249.90699 36.1363468,249.687464 L36.1363468,249.687464 Z M34.5783624,253.441363 L34.6428307,254.154824 L34.4601704,254.1658 L34.3957021,253.45234 L34.5783624,253.441363 Z M33.7617636,254.780474 L34.1163394,254.747545 C34.0841052,255.340266 33.9229344,255.658579 33.632827,255.680531 L33.4501667,255.691508 C33.6758059,255.29636 33.7832531,254.989024 33.7617636,254.780474 Z M33.1493146,256.646447 L33.3534642,256.624495 L33.364209,256.800116 L33.0311226,257.370884 L32.6765469,257.403813 L32.6658021,257.228192 C33.0203779,257.195263 33.1815487,257.008666 33.1493146,256.646447 L33.1493146,256.646447 Z M32.5476102,258.325823 L32.440163,259.225881 L32.2575028,259.236857 L32.1822897,258.347776 L32.5476102,258.325823 Z M26.5198222,275.833044 C26.2834383,277.062392 26.025565,277.688042 25.756947,277.709994 L25.7462023,277.534373 C25.681734,276.930676 25.9396073,276.359908 26.5198222,275.833044 Z M25.413116,278.280763 L25.4238607,278.456384 C25.4453501,278.697863 25.3379029,278.840555 25.1015191,278.851531 L25.0907744,278.67591 C25.0692849,278.46736 25.1767321,278.335644 25.413116,278.280763 Z M25.0907744,283.362796 L25.6494998,283.307915 L25.6709893,283.505488 C25.5313079,283.516464 25.3486476,283.593299 25.1230085,283.725014 L24.7684328,283.757943 C24.7469433,283.571346 24.8651352,283.428654 25.0907744,283.362796 L25.0907744,283.362796 Z M40.9929604,278.34662 C37.855502,279.92721 36.0074102,281.002889 35.4594294,281.562681 C32.0640978,282.770075 30.3771767,283.516464 30.4094109,283.812825 C27.3901445,285.031196 25.4023712,285.931254 24.4460911,286.491046 C24.220452,286.512998 23.8981104,286.425188 23.4683216,286.227614 C23.414598,285.601964 23.6939607,285.097054 24.2849203,284.69093 C24.8114116,284.647025 25.3164135,284.723859 25.7999259,284.932409 C26.3586514,284.636049 27.3364209,284.306759 28.7224898,283.955517 L28.6902557,283.582322 L27.5728047,283.681109 C27.7124861,283.483536 28.7869581,282.967649 30.8069655,282.133449 L31.365691,282.078567 L31.3764357,282.254188 C30.4201556,282.341999 29.8936643,282.627383 29.7754724,283.14327 C29.7969618,283.373772 29.9258985,283.472559 30.1622823,283.450607 C30.8821786,282.989601 31.2367544,282.715194 31.2260096,282.638359 C32.5905891,282.374928 36.3619859,280.355286 42.5402001,276.59041 L42.5724342,276.930676 C42.583179,277.095321 42.0566877,277.556326 40.9929604,278.34662 L40.9929604,278.34662 Z M31.5161171,281.529752 C32.4186736,281.452917 33.1922934,281.079723 33.8369767,280.43212 C34.0948499,280.410168 34.2345313,280.508954 34.245276,280.739457 C33.8047425,280.783362 32.9559096,281.156557 31.7202668,281.880994 L31.5376065,281.89197 L31.5161171,281.529752 L31.5161171,281.529752 Z M46.805854,269.53264 L42.0674324,273.37435 C38.5431641,275.734258 36.6520934,276.9197 36.3727306,276.941652 C30.7639867,280.091854 27.2719526,281.727325 25.9181178,281.848065 L25.7139681,281.870017 C25.8858837,281.222415 28.3786588,276.008666 33.2137829,266.195841 C35.3412375,266.009243 38.6935902,264.999422 43.2600963,263.155402 L44.3775472,263.056615 C46.6876621,262.848065 48.4175621,263.30907 49.5565024,264.406701 L49.6209707,265.120162 C48.7721378,267.633738 47.8266024,269.104564 46.805854,269.53264 L46.805854,269.53264 Z M37.5439052,264.21202 L38.3067803,264.14327 L38.317525,264.326603 L37.5546499,264.395353 L37.5439052,264.21202 Z M48.2563913,262.354131 L48.8151167,262.299249 C49.3308633,262.551704 49.5994813,262.771231 49.6209707,262.968804 L49.6317155,263.144425 C49.1374583,263.18833 48.6754353,262.924899 48.2563913,262.354131 L48.2563913,262.354131 Z M49.7713968,253.54015 C49.2771397,254.143847 47.9233049,255.175621 45.7098926,256.624495 C44.9792516,256.690352 42.2608373,257.766031 37.5546499,259.873484 C37.318266,259.76372 37.0711375,259.719815 36.8025195,259.741768 L36.7702853,259.401502 C36.7165617,258.709994 37.0174139,257.842865 37.6835865,256.789139 C38.048907,254.813403 38.4464617,253.682842 38.8869952,253.408434 L42.8088181,244.39688 C42.7658392,243.837088 43.6039274,243.409012 45.3230826,243.112652 L45.8818081,243.05777 L45.924787,243.573657 C47.611708,243.310225 48.6646906,243.156557 49.07299,243.123628 C52.1889589,242.84922 53.8114116,243.496823 53.9403483,245.044483 L54.294924,245.011554 L54.219711,244.10052 L54.6065209,244.067591 C55.5198222,244.583478 56.0140793,245.209128 56.0785476,245.944541 C56.1215265,246.449451 55.8529085,247.075101 55.2834383,247.82149 C55.0470545,247.843443 54.9073731,247.667822 54.8858837,247.31658 L54.4990737,247.349509 L54.413116,248.44714 C52.8336421,250.86193 51.683957,252.102253 50.9748055,252.168111 C50.3301223,253.079145 49.9325676,253.529174 49.7713968,253.54015 Z M52.1782142,259.851531 C51.8558725,259.632005 51.5979993,259.533218 51.4045943,259.544194 L51.3616154,259.006355 L51.7161912,258.973426 L52.5005558,259.445407 C52.5327899,259.697863 52.4253427,259.829578 52.1782142,259.851531 L52.1782142,259.851531 Z M54.6709893,262.870017 C55.0148203,263.012709 55.21897,263.166378 55.2619489,263.30907 L55.0900333,263.352975 L55.1007781,263.363951 C55.0685439,263.363951 55.025565,263.374928 54.9933309,263.385904 L54.7354576,263.594454 L54.6709893,262.870017 L54.6709893,262.870017 Z M54.9073731,264.384749 L54.8751389,264.242057 L55.3264172,264.132293 L55.3586514,264.274986 L54.9073731,264.384749 Z M55.9925898,265.625072 C56.4546128,265.548238 56.6802519,265.515309 57.5398296,265.317735 L57.5720637,265.460427 L55.9388662,265.844598 C55.9603557,265.767764 55.9818451,265.69093 55.9925898,265.625072 Z M57.5828084,266.31658 C56.8951464,266.382438 57.0455724,266.294627 55.949611,266.547083 L55.9173768,266.404391 L57.292701,265.954362 L57.9481289,265.800693 L58.0125973,266.064125 C57.7117451,266.129983 57.9266395,266.129983 57.5828084,266.31658 Z M59.0333457,265.965338 C58.8721749,266.009243 58.7432382,265.932409 58.6680252,265.745812 L59.0870693,265.647025 C59.2697295,265.60312 59.3879215,265.679954 59.4309003,265.866551 L59.0333457,265.965338 Z M62.9659133,261.64067 L62.9336791,261.497978 L63.6105965,261.333333 L63.6750648,261.596765 L62.9659133,261.64067 L62.9659133,261.64067 Z M67.1670989,287.961872 C67.2100778,287.764298 67.2208225,287.621606 67.1993331,287.522819 L67.3497592,287.48989 C67.5324194,287.445985 67.6398666,287.511843 67.6828455,287.687464 L67.7150797,287.830156 L67.1670989,287.961872 L67.1670989,287.961872 Z M70.1111523,262.771231 L69.8103001,262.716349 C69.3267877,262.913923 68.9184883,263.056615 68.585402,263.133449 L68.3060393,263.199307 C68.1448685,263.243212 68.0159318,263.177354 67.9514635,263.001733 L69.9177473,262.540728 L70.5624305,262.233391 L70.7773249,262.485846 C70.465728,262.551704 70.2400889,262.650491 70.1111523,262.771231 L70.1111523,262.771231 Z M71.6261578,262.277296 L71.5939237,262.134604 C71.6906262,262.112652 71.8195628,262.035817 71.9592442,261.893125 L73.3560578,261.563836 L73.388292,261.706528 C72.6469063,261.893125 72.0559466,262.079723 71.6261578,262.277296 Z M71.8410522,259.390526 C71.7443498,259.412478 71.6154131,259.500289 71.4542423,259.632005 C71.4327529,259.533218 71.2393479,259.533218 70.8740274,259.621028 C70.8095591,259.34662 71.8410522,258.962449 73.9792516,258.457539 L74.2801037,258.391681 L74.3445721,258.655113 C72.8403112,259.105142 72.002223,259.357597 71.8410522,259.390526 L71.8410522,259.390526 Z M75.6017043,255.241479 C75.4512783,256.986713 74.8495739,257.974581 73.7858466,258.227036 L73.7536124,258.084344 L72.8080771,258.457539 L72.389033,258.556326 C72.1741386,258.611207 71.9807336,258.600231 71.8088181,258.54535 L71.7228603,258.161179 C71.6906262,258.018486 73.0552056,256.086655 75.8273435,252.376661 L76.1496851,252.431542 C76.267877,252.936453 76.0852167,253.86944 75.6017043,255.241479 L75.6017043,255.241479 Z M82.2526862,249.424032 L82.1237495,249.435009 L82.1022601,249.160601 L82.6609856,249.105719 L82.6717303,249.248411 C82.5750278,249.270364 82.4353464,249.325246 82.2526862,249.424032 Z M79.5127825,277.534373 C79.1904409,277.380705 78.9003335,277.314847 78.6532049,277.3368 L78.6209707,276.9197 C78.610226,276.777008 78.6961838,276.678221 78.878844,276.623339 C79.0615043,276.601386 79.1689515,276.733102 79.1904409,277.018486 C79.6524639,276.414789 79.9103372,276.107452 79.9640608,276.107452 L80.2541682,276.228192 C80.146721,277.062392 79.8995924,277.501444 79.5127825,277.534373 L79.5127825,277.534373 Z M108.888848,246.142114 C108.749166,246.153091 108.480548,245.714038 108.061504,244.824957 L108.040015,244.550549 C108.308633,244.528596 108.587996,244.956672 108.867358,245.834778 L108.888848,246.142114 Z M108.502038,243.002889 L108.373101,243.288273 L104.397555,241.586944 C107.051501,241.674754 108.426825,242.146736 108.502038,243.002889 Z M91.6435717,257.787984 L91.0848462,257.842865 L91.0633568,257.568458 L91.6220823,257.513576 L91.6435717,257.787984 Z M91.1815487,248.908146 L91.3319748,248.897169 L91.364209,249.314269 C91.2245276,249.325246 91.0526121,249.522819 90.8484624,249.90699 L90.826973,249.632582 C91.0741015,249.314269 91.1922934,249.07279 91.1815487,248.908146 L91.1815487,248.908146 Z M90.0518759,251.761987 L90.1067125,252.299827 L89.9147846,252.310803 L89.8599481,251.772964 L90.0518759,251.761987 Z M89.3764357,252.782785 L89.6557984,252.760832 C89.6235643,253.221837 89.5053724,253.463316 89.3012227,253.485269 L89.1507966,253.496245 C89.3119674,253.188908 89.3871804,252.947429 89.3764357,252.782785 L89.3764357,252.782785 Z M88.9251575,254.187753 L89.0540941,254.176776 L89.0648388,254.319469 L88.8177103,254.758521 L88.5383475,254.780474 L88.5276028,254.637782 C88.8177103,254.615829 88.9466469,254.462161 88.9251575,254.187753 L88.9251575,254.187753 Z M88.4738792,255.461005 L88.3771767,256.163489 L88.2482401,256.174466 L88.1945165,255.482958 L88.4738792,255.461005 Z M83.8858837,268.775274 C83.7032234,269.697285 83.5098185,270.169266 83.3056688,270.191219 L83.294924,270.070479 C83.2626899,269.609474 83.4560948,269.170422 83.8858837,268.775274 L83.8858837,268.775274 Z M83.0370508,270.630272 L83.0477955,270.751011 C83.0692849,270.948585 82.9833272,271.058348 82.7899222,271.069324 L82.7791775,270.926632 C82.7684328,270.78394 82.8543905,270.685153 83.0370508,270.630272 Z M82.8006669,274.493934 L83.2304557,274.461005 L83.2412004,274.603697 C83.144498,274.614674 82.9940719,274.669555 82.8221564,274.768342 L82.5427936,274.790295 C82.5320489,274.636626 82.6180067,274.537839 82.8006669,274.493934 Z M94.8669878,270.685153 C92.5031493,271.881571 91.095591,272.693819 90.6550574,273.110919 C88.0763246,274.032929 86.7977029,274.603697 86.8191923,274.8342 C84.5305669,275.767187 83.026306,276.436742 82.3171545,276.864818 C82.145239,276.875794 81.8981104,276.809936 81.5757688,276.656268 C81.5327899,276.184287 81.7476843,275.800116 82.1989626,275.514731 C82.6072619,275.481802 82.9940719,275.536684 83.3486476,275.690352 C83.7784365,275.470826 84.5198222,275.229347 85.5728047,274.954939 L85.5513153,274.680531 L84.680993,274.757366 C84.7884402,274.603697 85.6157836,274.20855 87.1522786,273.571924 L87.5820674,273.538995 L87.5928122,273.659734 C86.8621712,273.725592 86.4538718,273.945118 86.367914,274.340266 C86.3786588,274.515887 86.486106,274.603697 86.6687662,274.581745 C87.2060022,274.219526 87.4638755,274.010976 87.4638755,273.945118 C88.4953687,273.758521 91.3534642,272.221837 96.048907,269.346043 L96.0703964,269.620451 C96.0703964,269.730214 95.6728418,270.081456 94.8669878,270.685153 L94.8669878,270.685153 Z M87.6680252,273.099942 C88.366432,273.034084 88.9573916,272.759676 89.4516488,272.276719 C89.634309,272.265742 89.7417562,272.342577 89.7525009,272.518198 C89.4301593,272.551127 88.7962208,272.825534 87.8399407,273.352397 L87.6895146,273.363374 L87.6680252,273.099942 L87.6680252,273.099942 Z M99.2938125,263.978625 L95.7158207,266.920277 C93.0403853,268.709417 91.5898481,269.609474 91.364209,269.631427 C87.1092997,272.024263 84.4660986,273.264587 83.4238607,273.352397 L83.2734346,273.363374 C83.4023712,272.86944 85.3041867,268.90699 88.9788811,261.465049 C90.5798444,261.322357 93.1155984,260.543039 96.5968877,259.13807 L97.4672101,259.061236 C99.2185995,258.907568 100.529455,259.25881 101.389033,260.103986 L101.432012,260.641826 C100.776584,262.529752 100.067432,263.638359 99.2938125,263.978625 L99.2938125,263.978625 Z M92.2667655,259.954483 L92.8254909,259.88446 L92.8362356,260.06652 L92.2775102,260.136543 L92.2667655,259.954483 Z M100.400519,258.523397 L100.830308,258.490468 C101.227862,258.688042 101.432012,258.863663 101.442757,259.006355 L101.453501,259.127094 C101.077436,259.160023 100.72286,258.962449 100.400519,258.523397 L100.400519,258.523397 Z M101.528714,251.838821 C101.152649,252.299827 100.131901,253.090121 98.4664691,254.187753 C97.9077436,254.242634 95.8447573,255.054882 92.2775102,256.635471 C92.1055947,256.569613 91.9121897,256.54766 91.70804,256.558637 L91.6865506,256.284229 C91.6435717,255.757366 91.8692108,255.098787 92.363468,254.297516 C92.6428307,252.782785 92.9544276,251.937608 93.2767692,251.740035 L96.2745461,244.890815 C96.242312,244.484691 96.8762505,244.155402 98.1656169,243.902946 L98.5954057,243.870017 L98.6276399,244.287117 C99.8955169,244.078567 100.690626,243.957828 101.012968,243.924899 C103.376806,243.716349 104.612449,244.199307 104.709152,245.384749 L104.988514,245.362796 L104.934791,244.704217 L105.214153,244.682265 C105.901815,245.066436 106.267136,245.527441 106.310115,246.076256 C106.342349,246.471404 106.148944,246.954362 105.740645,247.514154 C105.557984,247.536106 105.450537,247.404391 105.429048,247.119006 L105.149685,247.140959 L105.063727,247.964183 C103.871063,249.81918 103.000741,250.774119 102.45276,250.818024 C101.969248,251.487579 101.668396,251.827845 101.528714,251.838821 L101.528714,251.838821 Z M102.785847,256.404968 L102.753612,255.987868 L103.032975,255.965916 L103.63468,256.33911 C103.645424,256.514731 103.559466,256.613518 103.376806,256.635471 C103.118933,256.470826 102.925528,256.393992 102.785847,256.404968 L102.785847,256.404968 Z M52.7691738,283.066436 L52.489811,283.132293 L52.2534272,283.340843 C52.2964061,283.516464 52.4038533,283.582322 52.5865135,283.538417 C52.7691738,283.494512 52.8443868,283.384749 52.8014079,283.209128 L52.7691738,283.066436 Z M51.7054465,280.904102 L51.7376806,281.046794 C51.9203409,281.002889 51.9955539,280.893125 51.952575,280.717504 L51.9203409,280.574812 C51.7484253,280.618718 51.6732123,280.728481 51.7054465,280.904102 Z M59.3131052,266.404018 L59.5574581,266.187947 C59.5060154,266.187947 59.4674333,266.169941 59.4288513,266.151935 C59.3388265,266.187947 59.3002445,266.277977 59.3131052,266.404018 Z M59.2697295,262.518775 L59.5920711,262.441941 L59.5276028,262.156557 L59.2052612,262.233391 L59.2697295,262.518775 Z M135.202668,273.604853 L134.472027,273.517042 L134.34309,273.802426 L134.353835,273.945118 L138.705446,273.571924 L138.683957,273.297516 L135.202668,273.604853 L135.202668,273.604853 Z M139.178214,273.264587 L139.227567,273.538995 L139.326273,273.538995 L139.27692,273.264587 L139.178214,273.264587 Z M157.433494,270.827845 L157.454983,271.102253 L157.927751,271.190064 L157.906262,270.915656 L157.433494,270.827845 Z M156.767321,270.882727 C153.500926,271.629116 153.092627,271.4974 152.404965,271.552282 L152.426454,271.82669 L152.727306,271.804737 L152.888477,271.793761 L152.845498,271.760832 L153.200074,271.61814 C156.434235,271.255921 156.8103,271.387637 156.778066,271.014443 L156.767321,270.882727 Z M137.158207,266.031196 L136.868099,265.932409 C136.631715,266.580012 136.513524,266.964183 136.524268,267.073946 L136.535013,267.194685 C136.760652,267.183709 136.964802,266.788562 137.158207,266.031196 L137.158207,266.031196 Z M133.225639,263.868862 L133.214894,263.72617 L133.064468,263.737146 L132.79585,263.912767 L132.946276,264.176199 C133.150426,264.154246 133.247129,264.055459 133.225639,263.868862 Z M141.907009,272.891392 L141.857656,272.616984 L141.660245,272.627961 L141.709597,272.902369 L141.907009,272.891392 Z M159.49648,268.808203 L159.70063,268.786251 C159.818822,268.775274 159.872545,268.676488 159.861801,268.500867 L159.743609,268.237435 C159.002223,268.303293 158.658392,268.336222 158.056688,268.676488 L158.045943,268.533795 L157.154131,268.621606 C157.132642,268.347198 157.057429,268.204506 156.939237,268.215482 L156.477214,268.259388 C155.939978,268.303293 155.682104,268.28134 155.413486,268.48989 C155.402742,268.391103 155.370508,268.347198 155.316784,268.347198 L154.801037,268.391103 L154.500185,268.566724 C154.489441,268.467938 154.457206,268.424032 154.403483,268.424032 L154.220823,268.588677 L154.210078,268.445985 L153.490182,268.391103 L153.318266,268.40208 L153.339755,268.676488 L153.705076,268.775274 L154.048907,268.753322 C154.167099,268.830156 154.296036,268.852109 154.446462,268.841132 L154.747314,268.687464 L154.758059,268.808203 C153.071137,269.23628 153.081882,269.159445 151.921452,269.357019 C151.792516,269.269209 151.695813,269.225303 151.631345,269.23628 L151.609856,269.258232 C151.480919,269.247256 151.405706,269.159445 151.394961,269.016753 L151.996665,268.939919 C152.039644,268.939919 152.071878,268.983824 152.404965,269.049682 C152.888477,268.808203 152.909967,268.709417 153.16784,268.687464 L153.146351,268.413056 C151.491664,268.742345 152.157836,268.522819 150.084105,268.709417 L149.987403,268.720393 L149.965913,268.445985 C152.630604,268.116696 151.738792,268.303293 152.652093,268.039861 C152.662838,268.138648 152.695072,268.182553 152.748796,268.182553 C152.856243,268.07279 152.974435,268.017909 153.114116,267.995956 L153.296777,267.98498 C154.231567,267.908146 154.543164,268.094743 156.391256,267.56788 L156.402001,267.688619 L156.702853,267.534951 L156.982216,267.512998 C156.960726,267.23859 157.369026,267.194685 157.508707,267.183709 L157.487217,266.887348 C154.242312,267.556904 153.393479,267.370306 152.490923,267.633738 L152.480178,267.512998 C151.631345,267.666667 151.599111,267.600809 151.384216,267.611785 C151.319748,267.622761 151.223046,267.677643 151.115598,267.787406 C151.104854,267.688619 151.072619,267.644714 151.008151,267.644714 C150.975917,267.644714 150.965172,267.65569 150.954428,267.65569 L148.203779,268.116696 C148.193034,268.039861 148.1608,267.995956 148.096332,268.006932 C146.667284,268.314269 147.054094,268.369151 145.141534,268.544772 C145.055576,268.555748 144.937384,268.599653 144.786958,268.69844 C144.776213,268.621606 144.733235,268.577701 144.636532,268.588677 L143.465358,268.687464 L142.680993,268.885038 C142.670248,268.808203 142.627269,268.764298 142.530567,268.775274 C142.090033,268.896014 141.703223,268.972848 141.391627,268.994801 L141.370137,268.994801 C141.176732,269.016753 141.46684,268.939919 141.316413,268.874061 L141.08003,269.016753 C140.736199,269.049682 140.918859,268.994801 139.73694,269.005777 C137.663209,269.269209 137.888848,269.302137 137.663209,269.313114 L136.889589,269.258232 C136.900333,269.335066 136.857355,269.389948 136.771397,269.389948 C135.89033,269.269209 135.439052,269.126516 135.428307,268.961872 C135.546499,268.105719 135.750648,267.666667 136.040756,267.644714 L136.191182,267.633738 L136.062245,267.919122 L136.212671,267.908146 C136.492034,267.754477 136.620971,267.611785 136.610226,267.480069 L136.588737,267.183709 L136.309374,267.205661 L136.287884,266.931254 C136.266395,266.722704 136.298629,266.536106 136.373842,266.382438 L137.007781,265.339688 L137.02927,265.614096 L137.330122,265.592143 L137.308633,265.317735 L137.136717,265.06528 C137.362356,264.867707 137.534272,264.757943 137.673953,264.746967 L137.663209,264.604275 L137.254909,264.637204 L137.222675,264.220104 C138.039274,262.485846 138.426084,261.476025 138.404594,261.190641 L138.694702,261.311381 C138.877362,261.300404 138.96332,261.190641 138.952575,260.993068 L138.673212,261.01502 L138.662468,260.894281 C138.640978,260.685731 138.683957,260.488157 138.769915,260.312536 C139.210448,259.840555 139.414598,259.368573 139.371619,258.874639 C139.457577,258.863663 139.500556,258.907568 139.5113,259.006355 C139.887366,258.786828 140.177473,258.205084 140.392368,257.239168 C141.05854,256.009821 142.004076,253.551127 143.239718,249.874061 C145.603557,243.376083 145.506854,242.684575 145.839941,241.147891 L145.560578,241.169844 C145.582067,241.367418 145.539089,241.554015 145.453131,241.729636 C145.259726,241.652802 145.1093,241.608897 145.001853,241.619873 L144.991108,241.499133 C144.948129,240.939341 145.173768,240.269786 145.689515,239.479492 L145.818451,239.468515 L146.054835,240.412478 L146.334198,240.390526 C146.323453,240.324668 146.398666,239.951473 146.549092,239.259965 C146.538348,239.117273 146.4309,239.029463 146.216006,239.018486 L145.947388,239.194107 C145.925898,238.996534 145.936643,238.480647 145.968877,237.657423 L145.829196,237.6684 C145.592812,237.426921 145.47462,237.229347 145.463876,237.064702 L143.927381,237.218371 C143.916636,237.108608 143.862912,236.943963 143.755465,236.735413 C143.74472,236.592721 144.088551,236.450029 144.797703,236.307337 L145.1093,236.428076 L145.399407,236.252455 C145.410152,236.351242 145.463876,236.395147 145.571323,236.384171 L145.86143,236.20855 C145.872175,236.307337 145.925898,236.351242 146.033346,236.340266 L146.173027,236.329289 L146.151538,236.010976 C145.936643,236.032929 145.367173,236.032929 144.464617,236 L144.174509,236.197574 L144.163764,236.021953 C136.954057,236.62565 132.860319,236.965916 131.882549,237.064702 C131.753612,237.075679 131.248611,237.064702 130.356799,237.04275 C130.367544,237.163489 130.260096,237.229347 130.045202,237.2513 L129.733605,237.108608 L128.680622,237.383016 C128.433494,237.404968 128.01445,237.393992 127.434235,237.328134 C127.273064,237.45985 127.079659,237.536684 126.843275,237.558637 C126.714339,237.569613 128.37977,237.470826 129.92701,237.361063 C129.765839,237.492779 129.518711,237.569613 129.17488,237.602542 C128.938496,237.624495 128.734346,237.591566 128.562431,237.492779 C128.326047,237.602542 127.563172,237.778163 126.28455,238.041594 L125.972953,237.920855 L120.944424,238.71115 C120.751019,238.612363 120.52538,238.579434 120.267506,238.601386 C119.998888,238.623339 119.54761,238.722126 118.924416,238.897747 L116.49611,239.929521 L116.67877,240.236857 C116.796962,240.225881 116.968877,240.160023 117.173027,240.039284 L118.032605,240.116118 L117.925157,240.939341 C117.130048,241.30156 116.668025,241.839399 116.539089,242.519931 C115.346425,243.05777 114.755465,243.441941 114.755465,243.672444 L114.76621,243.815136 L114.94887,243.804159 L115.271212,243.628538 L115.647277,244.089544 L115.701,244.72617 C115.72249,244.923744 113.713227,249.237435 109.694702,257.667244 C106.213412,265.789717 104.38681,270.235124 104.214894,271.036395 C103.02223,271.376661 102.334568,271.870595 102.130419,272.529174 C102.151908,272.737724 102.506484,272.880416 103.194146,272.935298 L103.22638,273.253611 L102.914783,273.780474 L102.968507,274.4171 C103.000741,274.746389 103.871063,274.998845 105.579474,275.174466 C105.568729,275.064702 105.622453,274.998845 105.740645,274.987868 C105.772879,275.383016 105.665432,276.151358 105.418303,277.292894 L105.600963,277.281918 C106.310115,276.29405 106.643201,275.613518 106.610967,275.240324 L106.761393,275.229347 C106.933309,275.218371 107.115969,275.415945 107.330863,275.844021 C107.115969,275.931831 106.363838,277.677065 105.074472,281.090699 L105.257132,281.398036 L105.439793,281.38706 C107.019266,277.303871 108.007781,275.04275 108.41608,274.614674 C110.489811,274.428076 114.078548,274.054882 119.171545,273.49509 L119.493887,273.297516 C119.504631,273.407279 119.5691,273.462161 119.687292,273.451184 L120.020378,273.418255 L120.34272,273.220682 C120.353464,273.330445 120.417933,273.385326 120.536124,273.37435 L124.393479,273.034084 C125.414227,272.946274 125.89774,272.627961 125.854761,272.090121 C125.844016,271.947429 126.445721,271.782785 127.659874,271.607163 C127.778066,271.596187 127.949981,271.629116 128.186365,271.70595 C128.175621,271.607163 128.78807,271.508377 130.012968,271.398614 C130.045202,270.740035 130.249352,270.388793 130.614672,270.355864 L130.582438,270.037551 C130.238607,270.070479 129.851797,270.15829 129.400519,270.311958 C128.594665,270.268053 128.078918,270.202195 127.864024,270.125361 C127.649129,270.246101 127.487959,270.311958 127.369767,270.322935 L124.683587,270.410745 L124.361245,270.586366 C124.3505,270.487579 124.286032,270.443674 124.16784,270.45465 L124.017414,270.465627 L123.673583,270.641248 C123.662838,270.542461 123.383475,270.465627 122.82475,270.388793 L122.480919,270.597343 L121.814746,270.652224 L121.804001,270.476603 C125.263801,270.092432 126.972212,269.609474 126.929233,269.038706 C127.154872,269.016753 127.273064,269.126516 127.294554,269.357019 L128.304557,269.093588 L128.272323,268.775274 L119.988144,269.005777 C119.998888,269.11554 119.945165,269.181398 119.826973,269.192374 L118.816969,269.104564 C118.559096,269.126516 118.344202,269.203351 118.172286,269.335066 L117.796221,269.192374 C116.753983,269.280185 115.980363,269.411901 115.464617,269.576545 C114.755465,269.521664 113.9711,269.53264 113.100778,269.609474 L111.241941,269.774119 L110.382364,269.675332 C110.339385,269.11554 111.403112,266.360485 113.595035,261.421144 C114.228974,259.752744 114.809189,258.709994 115.367914,258.314847 C115.486106,258.303871 115.658021,258.347776 115.894405,258.446563 L117.216006,257.985557 L117.892923,258.095321 C119.031864,257.996534 120.353464,257.667244 121.86847,257.096476 C122.244535,257.063547 122.523898,257.0855 122.728047,257.17331 L123.738051,256.931831 L126.746573,256.6684 C128.025195,256.558637 129.411263,256.273252 130.915524,255.801271 L130.88329,255.482958 C130.324565,255.537839 130.034457,255.439053 130.012968,255.20855 C129.980734,254.780474 129.572434,254.604853 128.78807,254.670711 L128.755835,254.352397 L129.583179,254.110919 L131.753612,253.924321 L131.721378,253.606008 C131.635421,253.616984 131.194887,253.606008 130.378288,253.573079 L130.346054,253.232813 L131.184142,253.155979 C131.409781,253.134027 131.506484,253.024263 131.484994,252.804737 C130.356799,252.837666 129.787329,252.782785 129.776584,252.629116 C121.911449,253.024263 117.968136,253.101098 117.946647,252.848642 C117.828455,252.859619 117.667284,252.936453 117.45239,253.068169 L117.24824,252.738879 C119.332716,248.216638 120.557614,245.933564 120.91219,245.900635 C120.922934,246.076256 120.836977,246.361641 120.654316,246.745812 L120.665061,246.888504 L120.998147,246.855575 C121.825491,244.835933 122.523898,243.793183 123.104113,243.749278 C125.575398,243.529752 122.760282,243.365107 128.046684,242.519931 C128.261578,242.618718 128.412004,242.662623 128.519452,242.651646 C130.593183,242.22357 133.483512,241.773541 137.190441,241.312536 L137.168951,240.994223 L135.191923,241.18082 L135.170433,240.862507 C135.406817,240.840555 135.600222,240.76372 135.761393,240.632005 L135.772138,240.807626 C135.879585,240.796649 136.030011,240.719815 136.223416,240.588099 C136.567247,240.55517 136.82512,240.588099 137.007781,240.686886 C137.695443,240.500289 138.254168,240.390526 138.662468,240.34662 L139.89811,240.225881 C140.198963,240.028307 140.338644,239.852686 140.327899,239.688042 L140.317155,239.54535 C140.005558,239.578278 139.650982,239.556326 139.231938,239.479492 C139.221193,239.303871 139.307151,239.183131 139.5113,239.12825 L141.810671,238.908723 L142.863653,238.634315 C142.874398,238.755055 142.928122,238.79896 143.014079,238.79896 C143.121526,238.787984 143.271953,238.71115 143.465358,238.579434 C143.519081,238.59041 143.583549,238.59041 143.637273,238.601386 C143.497592,238.897747 143.336421,239.325823 143.17525,239.885615 L142.874398,239.907568 C142.852908,239.699018 142.799185,239.512421 142.702482,239.347776 L142.552056,239.358752 C139.758429,247.305604 138.512041,251.004622 135.933309,257.107452 C135.460541,258.666089 135.062986,259.533218 134.719155,259.719815 C134.7299,259.895436 134.837347,259.983247 135.020007,259.961294 C135.084476,260.729636 134.91256,261.487002 134.493516,262.233391 C133.300852,265.745812 132.505743,267.666667 132.097443,268.017909 L132.366062,269.675332 C132.376806,269.850953 132.290848,269.94974 132.108188,269.971693 L131.828825,269.993645 C131.785847,269.53264 131.624676,269.313114 131.334568,269.346043 L131.184142,269.357019 C130.818822,269.938764 130.539459,270.608319 130.356799,271.387637 L130.636162,271.365685 C131.012227,271.113229 131.184142,270.816869 131.151908,270.476603 L131.710634,270.421722 L132.032975,270.542461 C131.775102,270.959561 131.65691,271.28885 131.678399,271.541306 L131.828825,271.804737 L131.463505,272.682842 L131.47425,272.825534 C131.796591,272.792605 132.151167,272.902369 132.527232,273.132871 C132.785106,273.110919 133.064468,272.990179 133.376065,272.781629 C133.698407,272.7487 134.901815,272.737724 136.975546,272.737724 L138.017784,272.375505 C139.285661,272.364529 139.489811,272.397458 140.585773,272.298671 L141.037051,272.254766 L141.273435,272.090121 L141.284179,272.232813 C142.433864,272.134027 142.509077,272.210861 143.411634,272.320624 L143.422379,272.463316 L142.78844,272.518198 L142.80993,272.792605 C143.003335,272.770653 143.17525,272.715771 143.314931,272.595032 C143.476102,272.584055 143.572805,272.671866 143.583549,272.86944 C143.325676,272.891392 143.035569,272.95725 142.713227,273.067013 L142.433864,272.968226 C141.993331,273.088966 142.090033,273.121895 141.789181,273.143847 L141.348648,273.056037 C141.359392,273.132871 141.316413,273.187753 141.2412,273.187753 C141.251945,273.363374 141.348648,273.451184 141.509818,273.440208 L141.961097,273.396303 L144.31419,273.187753 L145.206002,272.990179 C145.216747,273.067013 145.248981,273.110919 145.324194,273.099942 L145.753983,272.935298 L146.559837,272.86944 C147.183031,272.814558 147.172286,272.770653 148.526121,272.551127 C148.515376,272.463316 148.54761,272.430387 148.612079,272.419411 L148.622823,272.54015 C150.825491,272.155979 150.965172,272.134027 151.319748,272.013287 L151.351982,272.079145 C151.899963,271.947429 151.588366,271.980358 151.738792,271.870595 C151.749537,271.969382 151.781771,272.013287 151.835495,272.013287 L152.222305,271.980358 L152.200815,271.683998 L151.416451,271.673021 L151.405706,271.651069 C151.373472,271.662045 151.351982,271.662045 151.319748,271.673021 L151.212301,271.673021 L151.212301,271.694974 C150.68581,271.804737 150.675065,271.727903 150.331234,271.760832 L148.36495,271.870595 L148.354205,271.727903 L149.450167,271.574235 L149.847721,271.541306 L150.073361,271.376661 L150.084105,271.519353 C151.631345,271.387637 152.179326,271.782785 159.335309,270.224148 C159.722119,270.191219 159.689885,269.86193 159.937014,269.181398 C159.808077,269.192374 159.67914,269.159445 159.560948,269.093588 C158.969989,269.32409 158.658392,269.214327 157.519452,269.400924 C157.422749,269.411901 157.347536,269.32409 157.315302,269.148469 L157.304557,269.02773 L158.400519,269.060659 C158.604668,269.038706 159.002223,269.005777 159.593183,268.665511 C159.593183,268.764298 159.367544,268.81918 159.49648,268.808203 L159.49648,268.808203 Z M106.589478,269.675332 L106.084476,269.719237 C106.062986,269.510687 106.331604,268.720393 106.89033,267.370306 L107.223416,267.337377 C107.234161,267.65569 107.030011,268.435009 106.589478,269.675332 Z M107.201927,267.172733 L107.191182,267.03004 C107.180437,266.854419 107.287884,266.73368 107.524268,266.678798 L107.535013,266.82149 C107.545758,267.03004 107.43831,267.15078 107.201927,267.172733 Z M113.917377,272.474292 L113.928122,272.638146 L113.090033,272.726375 L113.079289,272.562521 L113.917377,272.474292 Z M112.907373,272.386482 C112.918118,272.562103 112.660245,272.759676 112.101519,272.95725 L111.070026,272.880416 L110.73694,272.913345 L110.704705,272.595032 L112.907373,272.386482 L112.907373,272.386482 Z M119.698036,240.456384 L119.193034,240.500289 L119.18229,240.324668 C119.171545,240.149047 119.268247,240.028307 119.483142,239.973426 L119.665802,239.962449 L120.009633,240.105142 C120.020378,240.313692 119.923675,240.434431 119.698036,240.456384 L119.698036,240.456384 Z M127.380511,238.9197 L127.541682,238.908723 L127.563172,239.227036 L127.101149,239.270942 C127.090404,239.095321 127.176362,238.974581 127.380511,238.9197 L127.380511,238.9197 Z M125.446462,239.611207 L124.683587,239.523397 L124.672842,239.380705 C125.672101,239.292894 126.005187,239.183131 126.617636,239.00751 C126.628381,239.12825 126.735828,239.172155 126.929233,239.150202 L126.950722,239.468515 L126.64987,239.501444 C126.413486,239.523397 126.209337,239.490468 126.037421,239.391681 C125.854761,239.512421 125.661356,239.589255 125.446462,239.611207 L125.446462,239.611207 Z M126.402742,242.454073 L126.391997,242.311381 L127.62764,242.190641 L127.638385,242.333333 L126.402742,242.454073 Z M127.724342,241.378022 L127.713598,241.185959 L128.315302,241.125939 L128.326047,241.318002 L127.724342,241.378022 Z M127.864024,239.205084 L127.702853,239.21606 L127.842534,238.875794 L129.217858,238.744079 L129.228603,238.9197 C128.874027,238.952629 128.412004,239.051415 127.864024,239.205084 L127.864024,239.205084 Z M128.562431,242.234547 L128.540941,241.916233 L129.142645,241.861352 C129.346795,241.839399 129.454242,241.938186 129.464987,242.157712 L128.562431,242.234547 L128.562431,242.234547 Z M132.204891,237.163489 L131.431271,237.385711 L131.291589,237.396822 C130.926269,237.430156 130.453501,237.419045 129.894776,237.363489 C130.894035,237.296823 131.850315,237.219045 132.204891,237.163489 Z M131.377547,240.67591 L131.388292,240.824868 L130.324565,240.927993 L130.31382,240.779035 L131.377547,240.67591 Z M133.118192,241.521086 C133.107447,241.38937 132.903298,241.30156 132.484253,241.257655 L131.420526,241.564991 L130.603927,241.59792 C130.421267,241.466205 130.324565,241.378394 130.31382,241.312536 L131.259355,241.367418 L133.38681,241.016176 L134.472027,241.060081 L134.482771,241.235702 C133.945535,241.290583 133.494257,241.38937 133.118192,241.521086 L133.118192,241.521086 Z M144.067062,238.634315 C144.195999,238.645292 144.281956,238.645292 144.31419,238.645292 C144.690256,238.272097 145.1093,237.975737 145.592812,237.767187 C145.206002,239.501444 144.604298,240.785673 143.776954,241.619873 L143.17525,241.246678 C143.680252,239.940497 143.981104,239.073368 144.067062,238.634315 L144.067062,238.634315 Z M142.21897,241.872328 L142.369396,241.861352 C142.165246,242.256499 141.982586,242.465049 141.83216,242.476025 L141.799926,242.058925 C141.896628,242.058925 142.03631,241.993068 142.21897,241.872328 L142.21897,241.872328 Z M141.026306,244.781051 C141.316413,243.595609 141.595776,242.926054 141.853649,242.750433 L141.864394,242.893125 C141.713968,243.990757 141.477584,244.572501 141.165987,244.616407 L141.219711,245.307915 C140.961838,245.681109 140.843646,245.966493 140.854391,246.18602 L140.703964,246.196996 L140.618007,245.242057 C140.789922,245.220104 140.929604,245.066436 141.026306,244.781051 L141.026306,244.781051 Z M140.564283,246.361641 C140.575028,246.526285 140.467581,246.910456 140.252686,247.503177 L140.10226,247.514154 L140.070026,247.097054 C140.274176,246.614096 140.446091,246.372617 140.564283,246.361641 L140.564283,246.361641 Z M131.893294,272.068169 L131.882549,271.947429 L132.161912,271.925477 L132.194146,272.342577 C132.04372,272.353553 131.936273,272.265742 131.893294,272.068169 Z M144.281956,272.397458 C144.271212,272.298671 144.228233,272.254766 144.13153,272.265742 L143.433123,272.3316 L143.422379,272.188908 L143.486847,272.188908 L145.141534,272.046216 L145.152279,272.188908 C144.668766,272.210861 144.378659,272.287695 144.281956,272.397458 Z M143.508804,272.046216 C143.656862,272.121841 143.582833,272.197466 143.508804,272.247883 C143.434774,272.222674 143.336069,272.147049 143.508804,272.046216 Z M143.540571,270.070479 L142.616525,270.147314 L142.60578,270.004622 L143.443868,269.927787 L144.174509,269.74119 C144.185254,269.829001 144.228233,269.86193 144.324935,269.850953 C145.195258,269.697285 145.1093,269.65338 145.528344,269.620451 C145.668025,269.609474 145.753983,269.697285 145.764728,269.872906 L143.540571,270.070479 L143.540571,270.070479 Z M146.774731,269.785095 C146.258985,269.730214 146.226751,269.686308 145.86143,269.719237 L145.850685,269.598498 L146.678029,269.521664 L146.688774,269.642403 C146.602816,269.65338 146.914413,269.675332 146.774731,269.785095 Z M146.8392,269.718865 L146.828455,269.534004 L147.279733,269.466782 L147.290478,269.651643 L146.8392,269.718865 Z M147.838459,269.543616 L147.827714,269.422877 C147.902927,269.411901 148.010374,269.357019 148.150056,269.247256 C148.375695,269.225303 148.493887,269.378972 148.515376,269.554593 L147.838459,269.543616 L147.838459,269.543616 Z M149.11708,269.444457 L149.106336,269.251688 L149.654316,269.192374 L149.665061,269.385144 L149.11708,269.444457 Z M149.879956,269.313114 C149.869211,269.148469 149.933679,269.049682 150.073361,269.02773 L150.256021,269.269209 C150.245276,269.192374 150.27751,269.148469 150.341979,269.137493 L150.48166,269.400924 L149.879956,269.313114 L149.879956,269.313114 Z M160.45276,268.068325 L160.477437,268.043117 L160.477437,268.017909 C160.477437,268.017909 160.45276,268.043117 160.45276,268.068325 L160.45276,268.068325 Z M160.646165,267.897169 C160.732123,267.842288 160.775102,267.787406 160.570952,267.754477 C160.47425,267.86424 160.678399,267.897169 160.463505,267.908146 L160.47425,268.006932 C160.495739,267.98498 160.549463,267.952051 160.592442,267.919122 L160.47425,268.017909 L160.47425,268.028885 L160.248611,268.325246 L160.699889,268.160601 L160.753612,268.160601 L160.732123,267.886193 L160.646165,267.897169 L160.646165,267.897169 Z M161.43053,268.522819 L161.344572,268.533795 L161.366062,268.808203 L162,268.753322 C161.989255,268.577701 161.570211,268.522819 161.43053,268.522819 L161.43053,268.522819 Z" id="Shape" fill-rule="nonzero"></path>
            <g id="Group-12" transform="translate(10.000000, 464.000000)" fill-rule="nonzero">
                <polygon id="Shape" points="19 3.97104324 11.0969125 3.97104324 11.0969125 29 7.88679245 29 7.88679245 3.97104324 0 3.97104324 0 1 19 1"></polygon>
                <path d="M32,9 L22.7458824,31.8757083 C21.0973529,35.9567435 18.7782353,38 15.7885294,38 C14.9502941,38 14.2517647,37.9178315 13.6873529,37.7480166 L13.6873529,34.9159426 C14.3802941,35.1460144 15.0173529,35.2610502 15.5929412,35.2610502 C17.2191176,35.2610502 18.4373529,34.3133736 19.2476471,32.4125425 L20.8570588,28.676615 L13,9 L16.5764706,9 L22.0194118,24.1737816 C22.0864706,24.3655081 22.2205882,24.8694749 22.4329412,25.6747261 L22.5502941,25.6747261 C22.6173529,25.3679637 22.7458824,24.8804307 22.9414706,24.2121269 L28.6582353,9 L32,9 Z" id="Shape"></path>
                <path d="M37.2119565,26.7752809 L37.1358696,26.7752809 L37.1358696,39 L34,39 L34,9.47191011 L37.1358696,9.47191011 L37.1358696,13.0280899 L37.2119565,13.0280899 C38.7554348,10.3426966 41.0054348,9 43.9782609,9 C46.5,9 48.4673913,9.90449438 49.8804348,11.7134831 C51.2934783,13.5224719 52,15.9494382 52,18.994382 C52,22.3764045 51.2065217,25.0898876 49.6141304,27.1235955 C48.0217391,29.1573034 45.8423913,30.1741573 43.0815217,30.1741573 C40.5434783,30.1685393 38.5869565,29.0393258 37.2119565,26.7752809 Z M37.1358696,18.6179775 L37.1358696,21.4438202 C37.1358696,23.1179775 37.6630435,24.5337079 38.7119565,25.7022472 C39.7608696,26.8707865 41.0978261,27.4494382 42.7173913,27.4494382 C44.6141304,27.4494382 46.1032609,26.6966292 47.1793478,25.1966292 C48.2554348,23.6966292 48.7934783,21.6067416 48.7934783,18.9382022 C48.7934783,16.6853933 48.2880435,14.9213483 47.2826087,13.6460674 C46.2771739,12.3707865 44.9130435,11.7303371 43.1956522,11.7303371 C41.375,11.7303371 39.9076087,12.3876404 38.798913,13.6966292 C37.6902174,15 37.1358696,16.6404494 37.1358696,18.6179775 Z" id="Shape"></path>
                <path d="M72,20.3025478 L58.2375796,20.3025478 C58.2863057,22.5374204 58.8710191,24.2595541 59.9863057,25.4745223 C61.1015924,26.6894904 62.639172,27.2969745 64.5936306,27.2969745 C66.7863057,27.2969745 68.8057325,26.5501592 70.6464968,25.0621019 L70.6464968,28.0772293 C68.9356688,29.3590764 66.6671975,30 63.8519108,30 C61.0961783,30 58.9359873,29.0915605 57.3605096,27.2691083 C55.7850318,25.4466561 55,22.8829618 55,19.5780255 C55,16.4570064 55.860828,13.9100318 57.5770701,11.9482484 C59.2987261,9.98089172 61.4318471,9 63.9818471,9 C66.5318471,9 68.5025478,9.84713376 69.8993631,11.5469745 C71.2961783,13.2468153 71.994586,15.6042994 71.994586,18.6194268 L71.994586,20.3025478 L72,20.3025478 Z M68.8003185,17.5772293 C68.7894904,15.7213376 68.3509554,14.2778662 67.4955414,13.2468153 C66.6401274,12.2157643 65.4490446,11.6974522 63.927707,11.6974522 C62.4550955,11.6974522 61.2044586,12.2380573 60.1757962,13.3248408 C59.1471338,14.4116242 58.5136943,15.8272293 58.2700637,17.5772293 L68.8003185,17.5772293 L68.8003185,17.5772293 Z" id="Shape"></path>
                <path d="M75,28.3857965 L75,24.5117083 C75.4177396,24.9013436 75.9155937,25.2575816 76.4992847,25.5692898 C77.0829757,25.8809981 77.695279,26.1481766 78.341917,26.3596929 C78.9885551,26.5712092 79.6351931,26.743762 80.2818312,26.8606526 C80.9341917,26.9775432 81.5350501,27.0387716 82.0844063,27.0387716 C83.9842632,27.0387716 85.4091559,26.6658349 86.3476395,25.9143954 C87.286123,25.1629559 87.7553648,24.0831094 87.7553648,22.674856 C87.7553648,21.9178503 87.6008584,21.2610365 87.286123,20.6988484 C86.9713877,20.1366603 86.5422031,19.6245681 85.9871245,19.162572 C85.4320458,18.7005758 84.7796853,18.2552783 84.0243205,17.8322457 C83.2689557,17.4092131 82.4563662,16.9639155 81.5865522,16.4907869 C80.6652361,15.9953935 79.806867,15.4944338 79.0114449,14.9823417 C78.2160229,14.4758157 77.5178827,13.9136276 76.9341917,13.3013436 C76.3447783,12.6890595 75.8812589,11.9932821 75.5436338,11.2195777 C75.2060086,10.4458733 75.0400572,9.53301344 75.0400572,8.49213052 C75.0400572,7.21190019 75.3032904,6.10422265 75.8297568,5.15796545 C76.3562232,4.21170825 77.0486409,3.43243762 77.9127325,2.82015355 C78.7711016,2.20786948 79.7496423,1.75143954 80.8483548,1.45086372 C81.9470672,1.15028791 83.0686695,1 84.2074392,1 C86.8111588,1 88.7052933,1.33397313 89.8955651,1.99635317 L89.8955651,5.69232246 C88.3390558,4.54568138 86.3361946,3.97236084 83.8927039,3.97236084 C83.2174535,3.97236084 82.5422031,4.05028791 81.8669528,4.1950096 C81.1917024,4.3452975 80.5908441,4.59021113 80.0643777,4.92975048 C79.5379113,5.26928983 79.1087268,5.70345489 78.776824,6.24337812 C78.4449213,6.77773512 78.27897,7.42898273 78.27897,8.20268714 C78.27897,8.92072937 78.4048641,9.53857965 78.6566524,10.0618042 C78.9084406,10.5850288 79.2804006,11.0581574 79.7725322,11.4923225 C80.2646638,11.9209213 80.8597997,12.3383877 81.5693848,12.7447217 C82.2732475,13.1510557 83.0858369,13.5907869 84.0071531,14.075048 C84.9513591,14.5704415 85.8497854,15.093666 86.6967096,15.6391555 C87.5436338,16.1846449 88.2875536,16.7913628 88.9227468,17.459309 C89.5579399,18.1272553 90.0672389,18.8619962 90.4391989,19.6690979 C90.8111588,20.4761996 91,21.4057582 91,22.4466411 C91,23.8270633 90.7424893,25.0015355 90.2389127,25.9589251 C89.7296137,26.9163148 89.0429185,27.6955854 88.1788269,28.296737 C87.3147353,28.8978887 86.3190272,29.3320537 85.18598,29.5992322 C84.0586552,29.8664107 82.8683834,30 81.6151645,30 C81.1974249,30 80.6824034,29.9666027 80.0701001,29.8942418 C79.4577969,29.821881 78.8283262,29.7161228 78.193133,29.5825336 C77.5522175,29.4433781 76.9513591,29.2763916 76.379113,29.0760077 C75.8011445,28.8589251 75.3490701,28.6307102 75,28.3857965 Z" id="Shape"></path>
                <path d="M106.955687,28.6070576 C105.421344,29.5319713 103.604505,30 101.50517,30 C98.6635894,30 96.3648449,29.0695145 94.6200148,27.2085434 C92.8751846,25.3475723 92,22.934996 92,19.9708145 C92,16.6667551 92.9416544,14.0145927 94.8249631,12.0087556 C96.7082718,10.0029185 99.2175037,9 102.363737,9 C104.114106,9 105.659527,9.32873441 107,9.98063147 L107,13.2735474 C105.521049,12.2260547 103.936854,11.7078801 102.247415,11.7078801 C100.20901,11.7078801 98.5361891,12.4433537 97.2344904,13.9143009 C95.9327917,15.3852481 95.2791728,17.3130804 95.2791728,19.7033696 C95.2791728,22.0546564 95.8940177,23.9100557 97.1181684,25.2639958 C98.3423191,26.6179358 99.9929838,27.3032635 102.053545,27.3032635 C103.792836,27.3032635 105.426883,26.7237994 106.961226,25.5592995 L106.961226,28.6070576 L106.955687,28.6070576 Z" id="Shape"></path>
                <path d="M119,12.5326235 C118.462194,12.1122031 117.690096,11.8992629 116.678381,11.8992629 C115.368477,11.8992629 114.271565,12.5326235 113.392971,13.7993448 C112.514377,15.0660661 112.072417,16.7914278 112.072417,18.98089 L112.072417,29 L109,29 L109,9.34398034 L112.072417,9.34398034 L112.072417,13.3953044 L112.146965,13.3953044 C112.5836,12.013923 113.249201,10.9328419 114.149095,10.1629812 C115.048988,9.38766039 116.050053,9 117.162939,9 C117.961661,9 118.574015,9.08736009 119,9.26754027 L119,12.5326235 L119,12.5326235 Z" id="Shape"></path>
                <path d="M123.981408,4.12238693 C123.434263,4.12238693 122.966799,3.92949449 122.579017,3.54370962 C122.191235,3.15792474 122,2.66742683 122,2.07221589 C122,1.47700494 122.191235,0.986507032 122.579017,0.589699734 C122.966799,0.198403649 123.434263,0 123.981408,0 C124.539177,0 125.017264,0.198403649 125.410359,0.589699734 C125.803453,0.986507032 126,1.47700494 126,2.07221589 C126,2.63987077 125.803453,3.12485747 125.410359,3.52717598 C125.017264,3.91847206 124.539177,4.12238693 123.981408,4.12238693 Z M125.474104,29 L122.409031,29 L122.409031,9.15963512 L125.474104,9.15963512 L125.474104,29 Z" id="Shape"></path>
                <path d="M130.211957,26.7752809 L130.13587,26.7752809 L130.13587,39 L127,39 L127,9.47191011 L130.13587,9.47191011 L130.13587,13.0280899 L130.211957,13.0280899 C131.755435,10.3426966 134.005435,9 136.978261,9 C139.5,9 141.467391,9.90449438 142.880435,11.7134831 C144.293478,13.5224719 145,15.9494382 145,18.994382 C145,22.3764045 144.206522,25.0898876 142.61413,27.1235955 C141.021739,29.1573034 138.842391,30.1741573 136.081522,30.1741573 C133.543478,30.1685393 131.586957,29.0393258 130.211957,26.7752809 Z M130.13587,18.6179775 L130.13587,21.4438202 C130.13587,23.1179775 130.663043,24.5337079 131.711957,25.7022472 C132.76087,26.8707865 134.097826,27.4494382 135.717391,27.4494382 C137.61413,27.4494382 139.103261,26.6966292 140.179348,25.1966292 C141.255435,23.6966292 141.793478,21.6067416 141.793478,18.9382022 C141.793478,16.6853933 141.288043,14.9213483 140.282609,13.6460674 C139.277174,12.3707865 137.913043,11.7303371 136.195652,11.7303371 C134.375,11.7303371 132.907609,12.3876404 131.798913,13.6966292 C130.690217,15 130.13587,16.6404494 130.13587,18.6179775 Z" id="Shape"></path>
                <path d="M158,28.3859131 C157.223966,28.797132 156.202568,29 154.9301,29 C151.335235,29 149.532097,27.0700127 149.532097,23.2155209 L149.532097,11.5369043 L146,11.5369043 L146,8.83930831 L149.532097,8.83930831 L149.532097,4.01982286 L152.824536,3 L152.824536,8.83930831 L158,8.83930831 L158,11.5369043 L152.824536,11.5369043 L152.824536,22.6562632 C152.824536,23.9776466 153.058488,24.9261915 153.526391,25.4909321 C153.994294,26.0556727 154.770328,26.3407845 155.854494,26.3407845 C156.681883,26.3407845 157.400856,26.1214677 158,25.6828342 L158,28.3859131 Z" id="Shape"></path>
            </g>
        </g>
    </g>
</svg>