<?xml version="1.0" encoding="UTF-8"?>
<svg width="178px" height="576px" viewBox="0 0 178 576" version="1.1" xmlns="http://www.w3.org/2000/svg" xmlns:xlink="http://www.w3.org/1999/xlink">
    <!-- Generator: Sketch 43.2 (39069) - http://www.bohemiancoding.com/sketch -->
    <title>Artboard Copy 7</title>
    <desc>Created with Sketch.</desc>
    <defs></defs>
    <g id="Page-1" stroke="none" stroke-width="1" fill="none" fill-rule="evenodd">
        <g id="Artboard-Copy-7">
            <g id="Group-4" transform="translate(48.000000, 325.000000)" font-size="34" font-family="ProximaNova-Light, Proxima Nova" fill="#FFFFFF" font-weight="300">
                <text id="React">
                    <tspan x="0.843" y="34">React</tspan>
                </text>
            </g>
            <text id="AngularJs" font-family="ProximaNova-Light, Proxima Nova" font-size="34" font-weight="300" fill="#FFFFFF">
                <tspan x="17.274" y="142">AngularJs</tspan>
            </text>
            <text id="Atom" font-family="ProximaNova-Light, Proxima Nova" font-size="34" font-weight="300" fill="#FFFFFF">
                <tspan x="51.291" y="569">Atom</tspan>
            </text>
            <g id="angular_whiteTransparent" transform="translate(45.000000, 12.000000)" fill-rule="nonzero" fill="#FFFFFF">
                <g id="Group">
                    <polygon id="Shape" points="44.5263158 59.232 32.8263158 59.232 27.2842105 73.248 27.2842105 73.248 17.0052632 73.248 16.9578947 73.248 44.5263158 10.608 44.5263158 10.656 44.5263158 10.656 44.5263158 0 44.5263158 0 0.426315789 15.936 7.15263158 75.024 44.5263158 96 44.5263158 96"></polygon>
                    <polygon id="Shape" points="36.4736842 50.592 44.5263158 50.592 44.5263158 50.592 44.5263158 30.96"></polygon>
                </g>
                <g id="Group" opacity="0.9" transform="translate(45.000000, 0.000000)">
                    <polygon id="Shape" points="0 59.232 11.8244681 59.232 17.4255319 73.248 17.4255319 73.248 27.8138298 73.248 27.8617021 73.248 0 10.608 0 10.656 0 10.656 0 0 0 0 44.5691489 15.936 37.7712766 75.024 0 96 0 96"></polygon>
                    <polygon id="Shape" points="8.13829787 50.592 0 50.592 0 50.592 0 30.96"></polygon>
                </g>
            </g>
            <g id="Group-14" transform="translate(23.000000, 207.000000)" fill-rule="nonzero" fill="#FFFFFF">
                <path d="M133,59.0135042 C133,50.2357519 121.966368,41.9171435 105.049939,36.758526 C108.95373,19.5811398 107.218712,5.91485466 99.5737872,1.53948272 C97.8116592,0.513160906 95.7513249,0.0270084688 93.501223,0.0270084688 L93.501223,6.049897 C94.7482674,6.049897 95.7513249,6.29297322 96.5917244,6.75211719 C100.278638,8.85877775 101.878108,16.880293 100.631064,27.197528 C100.332858,29.7363241 99.8448838,32.4101625 99.2484713,35.1380179 C93.9349776,33.8416114 88.13351,32.842298 82.0338361,32.1940948 C78.3740318,27.197528 74.5786792,22.6601053 70.7562169,18.6898604 C79.5939666,10.5062943 87.889523,6.02288853 93.5283327,6.02288853 L93.5283327,0 L93.5283327,0 C86.0731757,0 76.3136975,5.29365988 66.4457807,14.4765393 C56.5778638,5.34767681 46.8183857,0.108033875 39.3632287,0.108033875 L39.3632287,6.13092241 C44.9749287,6.13092241 53.2975948,10.5873198 62.1353445,18.7168688 C58.3399918,22.6871138 54.5446392,27.197528 50.9390542,32.1940948 C44.8122707,32.842298 39.0108031,33.8416114 33.6973094,35.1650263 C33.0737872,32.4641794 32.612923,29.844358 32.287607,27.3325704 C31.0134529,17.0153353 32.5858133,8.9938201 36.2456176,6.86015106 C37.0589075,6.37399863 38.1161843,6.15793088 39.3632287,6.15793088 L39.3632287,0.135042344 L39.3632287,0.135042344 C37.0860171,0.135042344 35.0256828,0.621194781 33.2364452,1.64751659 C25.6186302,6.02288853 23.9107216,19.6621653 27.8416225,36.7855344 C10.979413,41.9711604 0,50.2627604 0,59.0135042 C0,67.7912566 11.0336323,76.109865 27.9500611,81.2684825 C24.0462699,98.4458686 25.7812882,112.112154 33.4262128,116.487526 C35.1883408,117.513848 37.2486751,118 39.5258867,118 C46.9810436,118 56.7405218,112.70634 66.6084386,103.523461 C76.4763555,112.652323 86.2358337,117.891966 93.6909906,117.891966 C95.9682022,117.891966 98.0285365,117.405814 99.8177742,116.379492 C107.435589,112.00412 109.143498,98.3648432 105.212597,81.241474 C122.020587,76.0828565 133,67.7642481 133,59.0135042 Z M97.7032205,40.9988556 C96.7001631,44.482948 95.4531186,48.0750744 94.0434162,51.6672007 C92.9319201,49.5065232 91.7662046,47.3458457 90.4920506,45.1851682 C89.2450061,43.0244907 87.9166327,40.9178302 86.5882593,38.8651865 C90.4378312,39.4323644 94.1518549,40.1345846 97.7032205,40.9988556 Z M85.2869955,69.7628748 C83.1724419,73.4090181 81.003669,76.8661021 78.7535671,80.0801099 C74.7142275,80.43122 70.6206686,80.6202792 66.5,80.6202792 C62.4064411,80.6202792 58.3128822,80.43122 54.3006523,80.1071183 C52.0505503,76.8931106 49.8546678,73.463035 47.7401141,69.8439002 C45.6797799,66.3057908 43.8092132,62.7136645 42.1013045,59.0945296 C43.7821035,55.4753948 45.6797799,51.85626 47.7130045,48.3181506 C49.8275581,44.6720073 51.996331,41.2149233 54.2464329,38.0009155 C58.2857725,37.6498054 62.3793314,37.4607462 66.5,37.4607462 C70.5935589,37.4607462 74.6871178,37.6498054 78.6993477,37.9739071 C80.9494497,41.1879149 83.1453322,44.6179904 85.2598859,48.2371252 C87.3202201,51.7752346 89.1907868,55.367361 90.8986955,58.9864958 C89.1907868,62.6056306 87.3202201,66.2247654 85.2869955,69.7628748 Z M94.0434162,66.2517739 C95.507338,69.8709087 96.7543824,73.4900435 97.7845495,77.0011444 C94.2331839,77.8654154 90.4920506,78.5946441 86.6153689,79.1618219 C87.9437424,77.0821698 89.2721158,74.9485008 90.5191602,72.7608148 C91.7662046,70.6001373 92.9319201,68.4124514 94.0434162,66.2517739 Z M66.5542193,95.06981 C64.0330208,92.476997 61.5118223,89.5870909 59.0177334,86.4271 C61.4576029,86.5351339 63.9516918,86.6161593 66.4728903,86.6161593 C69.0211985,86.6161593 71.5423971,86.5621424 74.0093763,86.4271 C71.5695067,89.5870909 69.0483082,92.476997 66.5542193,95.06981 Z M46.3846311,79.1618219 C42.5350591,78.5946441 38.8210355,77.8924239 35.2696698,77.0281529 C36.2727273,73.5440604 37.5197717,69.9519341 38.9294741,66.3598077 C40.0409702,68.5204852 41.2066857,70.6811627 42.4808398,72.8418402 C43.7549939,75.0025177 45.0562576,77.1091783 46.3846311,79.1618219 Z M66.418671,22.9571984 C68.9398695,25.5500114 71.4610681,28.4399176 73.955157,31.5999084 C71.5152874,31.4918746 69.0211985,31.4108492 66.5,31.4108492 C63.9516918,31.4108492 61.4304933,31.4648661 58.9635141,31.5999084 C61.4033836,28.4399176 63.9245821,25.5500114 66.418671,22.9571984 Z M46.3575214,38.8651865 C45.029148,40.9448386 43.7007746,43.0785077 42.4537301,45.2661936 C41.2066857,47.4268711 40.0409702,49.5875486 38.9294741,51.7482261 C37.4655524,48.1290913 36.2185079,44.5099565 35.1883408,40.9988556 C38.7397065,40.161593 42.4808398,39.4323644 46.3575214,38.8651865 Z M21.8232776,72.6797894 C12.2264574,68.6015106 6.01834488,63.2538338 6.01834488,59.0135042 C6.01834488,54.7731746 12.2264574,49.3984894 21.8232776,45.347219 C24.1547085,44.3479057 26.7030167,43.4566262 29.3326539,42.6193637 C30.8779046,47.9130236 32.9111292,53.4227512 35.4323278,59.0675212 C32.9382389,64.6852827 30.9321239,70.1680018 29.4139829,75.4346532 C26.7301264,74.5973907 24.1818182,73.6791028 21.8232776,72.6797894 Z M36.4082756,111.274891 C32.7213616,109.168231 31.1218916,101.146715 32.368936,90.8294804 C32.6671423,88.2906844 33.1551162,85.616846 33.7515287,82.8889906 C39.0650224,84.1853971 44.86649,85.1847105 50.9661639,85.8329137 C54.6259682,90.8294804 58.4213208,95.3669032 62.2437831,99.3371481 C53.4060334,107.520714 45.110477,112.00412 39.4716673,112.00412 C38.2517326,111.977111 37.2215654,111.734035 36.4082756,111.274891 Z M100.712393,90.6944381 C101.986547,101.011673 100.414187,109.033188 96.7543824,111.166857 C95.9410925,111.65301 94.8838157,111.869078 93.6367713,111.869078 C88.0250713,111.869078 79.7024052,107.41268 70.8646555,99.2831312 C74.6600082,95.3128862 78.4553608,90.802472 82.0609458,85.8059052 C88.1877293,85.157702 93.9891969,84.1583886 99.3026906,82.8349737 C99.9262128,85.562829 100.414187,88.1826505 100.712393,90.6944381 Z M111.149613,72.6797894 C108.818182,73.6791028 106.269874,74.5703822 103.640236,75.4076448 C102.094986,70.1139849 100.061761,64.6042573 97.5405626,58.9594873 C100.034651,53.3417258 102.040766,47.8590066 103.558907,42.5923552 C106.242764,43.4296178 108.791072,44.3479057 111.176722,45.347219 C120.773543,49.4254978 126.981655,54.7731746 126.981655,59.0135042 C126.954545,63.2538338 120.746433,68.6285191 111.149613,72.6797894 Z" id="Shape"></path>
                <circle id="Oval" cx="65.5" cy="58.5" r="12.5"></circle>
            </g>
            <g id="Group-15" transform="translate(26.000000, 413.000000)">
                <path d="M101.96875,26.43727 C104.08143,15.684552 102.89996,7.523975 97.90625,4.2810201 C96.241679,3.2000351 94.24602,2.7270015 92,2.8122701 C79.871494,3.2727205 60.301679,19.972344 44.3125,44.59352 C25.362362,73.774173 18.627996,103.01897 29.28125,109.93727 C34.338196,113.22129 42.396397,110.89331 51.5,104.40602" id="Shape" stroke="#FFFFFF" stroke-width="5" stroke-linecap="round"></path>
                <path d="M111.6875,74.15602 C120.68187,70.666831 126.21254,65.891008 126.5,60.40602 C127.1648,47.720879 99.55876,35.976994 64.8125,34.15602 C61.555039,33.985304 58.351912,33.895476 55.21875,33.90602 C24.931516,34.007947 1.2899751,42.316361 0.6875,53.81227 C0.400608,59.286495 5.3879836,64.594653 13.9375,68.99977" id="Shape" stroke="#FFFFFF" stroke-width="5" stroke-linecap="round"></path>
                <path d="M55,7.53102 C48.846125,2.4251295 43.074552,-0.316763 38.4375,0.0310201 C37.20289,0.123617 36.061068,0.4278792 35,0.9685201 C23.681946,6.7353567 27.297632,36.560643 43.09375,67.56227 C58.889868,98.5639 80.869446,119.01661 92.1875,113.24977 C103.0719,107.70389 100.13416,79.912016 85.84375,50.21852" id="Shape" stroke="#FFFFFF" stroke-width="5" stroke-linecap="round"></path>
                <path d="M71.5,58 C71.5,62.1421356 68.1421356,65.5 64,65.5 C59.8578644,65.5 56.5,62.1421356 56.5,58 C56.5,53.8578644 59.8578644,50.5 64,50.5 C68.1421356,50.5 71.5,53.8578644 71.5,58 Z" id="Shape" fill="#FFFFFF" fill-rule="nonzero"></path>
            </g>
        </g>
    </g>
</svg>