<?xml version="1.0" encoding="UTF-8"?>
<svg width="178px" height="576px" viewBox="0 0 178 576" version="1.1" xmlns="http://www.w3.org/2000/svg" xmlns:xlink="http://www.w3.org/1999/xlink">
    <!-- Generator: Sketch 43.2 (39069) - http://www.bohemiancoding.com/sketch -->
    <title>Artboard Copy 4</title>
    <desc>Created with Sketch.</desc>
    <defs>
        <polygon id="path-1" points="0.359019813 0.00363095238 26.8033064 0.00363095238 26.8033064 15.0434151 0.359019813 15.0434151 0.359019813 0.00363095238"></polygon>
    </defs>
    <g id="Page-1" stroke="none" stroke-width="1" fill="none" fill-rule="evenodd">
        <g id="Artboard-Copy-4">
            <text id="Buildkite" font-family="ProximaNova-Light, Proxima Nova" font-size="34" font-weight="300" fill="#FFFFFF">
                <tspan x="26.362" y="142">Buildkite</tspan>
            </text>
            <text id="Grunt" font-family="ProximaNova-Light, Proxima Nova" font-size="34" font-weight="300" fill="#FFFFFF">
                <tspan x="49.489" y="569">Grunt</tspan>
            </text>
            <g id="Group" transform="translate(15.000000, 8.000000)" fill="#FFFFFF">
                <g id="Page-1">
                    <g id="Group-5">
                        <polygon id="Fill-1" points="0 0.216606887 49.5762938 24.7161585 49.5762938 74.1101865 0 49.6106349"></polygon>
                        <polygon id="Fill-3" points="99.5490793 0.216606887 148.728442 24.7161585 99.5490793 49.6106349"></polygon>
                    </g>
                    <polygon id="Fill-6" opacity="0.817255435" points="100 0 50 24.6642216 50 74.3902439 100 49.7260223"></polygon>
                    <polygon id="Fill-7" points="100 50.5385095 100 100 148.780488 75.0712466 148.780488 25.6097561"></polygon>
                </g>
            </g>
            <g id="Group-2" transform="translate(33.000000, 186.000000)">
                <g id="Group-4" transform="translate(0.000000, 139.000000)" font-size="34" font-family="ProximaNova-Light, Proxima Nova" fill="#FFFFFF" font-weight="300">
                    <text id="Jenkins">
                        <tspan x="0.985" y="34">Jenkins</tspan>
                    </text>
                </g>
                <g id="Group-8" transform="translate(7.000000, 0.000000)">
                    <g id="g3393" transform="translate(50.193693, 69.821656) scale(-1, 1) rotate(-180.000000) translate(-50.193693, -69.821656) translate(0.193693, 0.821656)">
                        <path d="M97.8623348,71.1806167 C97.8623348,43.9621145 76.2901982,21.8969163 49.6795154,21.8969163 C23.0692731,21.8969163 1.49710903,43.9621145 1.49710903,71.1806167 C1.49710903,98.3997797 23.0692731,120.465308 49.6795154,120.465308 C76.2901982,120.465308 97.8623348,98.3997797 97.8623348,71.1806167" id="path22" fill="#FFFFFF"></path>
                        <path d="M16.6785793,104.801211 C8.2248348,96.1514317 2.99357379,84.2087004 2.99357379,70.996696 L2.99357379,70.996696 C2.99357379,57.7874449 8.2248348,45.8431718 16.6785793,37.194989 L16.6785793,37.194989 C25.1363987,28.5468062 36.792511,23.2103524 49.6788546,23.2103524 L49.6788546,23.2103524 C62.5655286,23.2103524 74.222467,28.5468062 82.6795154,37.194989 L82.6795154,37.194989 C91.1327093,45.8431718 96.3650881,57.7874449 96.3650881,70.996696 L96.3650881,70.996696 C96.3650881,84.2087004 91.1327093,96.1514317 82.6795154,104.801211 L82.6795154,104.801211 C74.222467,113.447687 62.5655286,118.784141 49.6788546,118.785242 L49.6788546,118.785242 C36.792511,118.784141 25.1363987,113.447687 16.6785793,104.801211 L16.6785793,104.801211 Z M14.5387115,35.1029185 C5.55435022,44.2911894 0,56.9895374 0,70.996696 L0,70.996696 C0,85.0060573 5.55435022,97.7031938 14.5387115,106.89207 L14.5387115,106.89207 C23.5209802,116.082599 35.9547357,121.779185 49.6788546,121.777533 L49.6788546,121.777533 C63.4030837,121.779185 75.8381057,116.082599 84.8188326,106.89207 L84.8188326,106.89207 C93.8039648,97.7031938 99.3590308,85.0049559 99.3579295,70.996696 L99.3579295,70.996696 C99.3590308,56.9895374 93.8039648,44.2911894 84.8188326,35.1029185 L84.8188326,35.1029185 C75.8381057,25.9128855 63.4030837,20.2170154 49.6788546,20.2170154 L49.6788546,20.2170154 C35.9547357,20.2170154 23.5209802,25.9128855 14.5387115,35.1029185 L14.5387115,35.1029185 L14.5387115,35.1029185 Z" id="path26" fill="#231F20" fill-rule="nonzero"></path>
                        <polyline id="path28" fill="#FFFFFF" points="69.9620044 70.907489 62.6194934 69.8061674 52.707489 68.7048458 46.2828194 68.5214758 40.0422907 68.7048458 35.2696035 70.1734581 31.0477974 74.7621145 27.7438326 84.123348 27.0096916 86.1426211 22.6044053 87.6106828 20.0345815 91.8325991 18.1991189 97.8898678 20.2185022 103.213106 24.9905286 104.865088 28.8451542 103.029185 30.6810573 98.9911894 32.8837004 99.3584802 33.6176211 100.275881 32.8837004 104.497797 32.6997797 109.821035 33.8011013 117.162996 33.7580947 121.356828 37.1050661 126.707599 42.9788546 130.929515 53.2581498 135.334802 64.6382159 133.682819 74.5501101 126.524229 79.1393172 119.182269 82.0759912 113.859031 82.810022 100.643172 80.6073789 89.2626652 76.5693833 79.1674009 72.7147577 73.844163"></polyline>
                        <polyline id="path30" fill="#FFFFFF" points="63.720815 39.1530837 37.4722467 38.0517621 37.4722467 33.6464758 39.6748899 18.2279736 38.5735683 16.9427313 20.2185022 23.1839207 18.9332599 25.3865639 17.0977974 46.1277533 12.876652 58.6095815 11.9585903 61.5462555 26.642511 71.6415198 31.2317181 73.4774229 35.2696035 68.5214758 38.7570485 65.4008811 42.7955947 64.1161894 44.630837 63.5655286 46.8334802 54.0209251 48.4854626 52.0017621 52.707489 53.4702643 49.7702643 47.7797357 65.7395374 40.2544053 63.720815 39.1530837"></polyline>
                        <polyline id="path32" fill="#FFFFFF" points="20.2185022 103.213106 24.9905286 104.865088 28.8451542 103.029185 30.6810573 98.9911894 32.8837004 99.3584802 33.4343612 101.561123 32.3330396 105.782489 33.4343612 115.878304 32.5162996 121.384912 35.8202643 125.239537 42.9788546 130.929515 40.9596916 133.682819 30.8643172 128.726872 26.642511 125.422907 24.2563877 120.28359 20.5852423 115.327643 19.4839207 109.453744 20.2185022 103.213106"></polyline>
                        <polyline id="path60" fill="#FFFFFF" points="65.3727974 38.969163 72.1640969 39.1526432 73.8160793 22.2654185 66.840859 21.3480176 65.3727974 38.969163"></polyline>
                        <polyline id="path68" fill="#FFFFFF" points="43.4751101 2.80729626 39.6748899 18.2279736 37.7848018 29.6061674 37.4722467 38.0517621 54.6720264 38.9674009 65.3727974 38.969163 64.3997797 19.6942731 66.0517621 4.82645374 65.8683921 2.07314978 51.9187225 0.971828194 43.4751101 2.80729626"></polyline>
                        <polyline id="path72" fill="#FFFFFF" points="74.1288546 23.7323789 81.2874449 25.7515419 94.8700441 26.4856828 96.8893172 32.7262665 93.2180617 43.5561674 88.996696 44.1068282 83.1227974 42.2713656 77.4873348 39.5198238 74.4955947 40.0687225 72.1640969 39.1526432"></polyline>
                        <path d="M66.7863436,40.4355176 L62.748348,50.7147577 L58.5264317,56.7720264 C58.5264317,56.7720264 59.4438326,59.3419604 60.7290749,59.3419604 L64.9509912,59.3419604 L68.9889868,57.873348 L68.6222467,51.0819383 L66.7863436,40.4355176" id="path76" fill="#FFFFFF" fill-rule="nonzero"></path>
                        <polyline id="path80" fill="#FFFFFF" fill-rule="nonzero" points="45.1273128 68.1519824 40.0422907 68.7048458 35.2696035 70.1734581 35.2696035 68.5214758 37.6015419 65.9498899 44.9436123 62.6459251"></polyline>
                        <path d="M36.9222467,67.6018722 C36.9222467,67.6018722 42.6127753,65.2153084 44.4482379,65.7659692 L44.630837,63.5655286 L39.4922907,64.6646476 L36.3715859,66.8672907 L36.9222467,67.6018722" id="path82" fill="#DCD9D8"></path>
                        <path d="M74.1090308,58.7169604 C70.9944934,58.80837 68.1806167,59.1784141 65.7169604,59.873348 C65.8843612,60.8832599 65.5710352,61.8744493 65.8226872,62.6018722 C66.5093612,63.0963656 67.6602423,63.0886564 68.6982379,63.2048458 C67.8006608,63.6459251 66.5396476,63.8204846 65.5038546,63.5655286 C65.4796256,64.2665198 65.1651982,64.7009912 64.9746696,65.2494493 C66.7257709,65.8744493 70.8595815,69.9719163 73.185022,68.6150881 C74.2929515,67.9697137 74.7637665,64.2835903 74.8496696,62.4911894 C74.9212555,61.0044053 74.7147577,59.5044053 74.1090308,58.7169604" id="path84" fill="#FFFFFF"></path>
                        <path d="M74.1090308,58.7169604 C70.9944934,58.80837 68.1806167,59.1784141 65.7169604,59.873348 C65.8843612,60.8832599 65.5710352,61.8744493 65.8226872,62.6018722 C66.5093612,63.0963656 67.6602423,63.0886564 68.6982379,63.2048458 C67.8006608,63.6459251 66.5396476,63.8204846 65.5038546,63.5655286 C65.4796256,64.2665198 65.1651982,64.7009912 64.9746696,65.2494493 C66.7257709,65.8744493 70.8595815,69.9719163 73.185022,68.6150881 C74.2929515,67.9697137 74.7637665,64.2835903 74.8496696,62.4911894 C74.9212555,61.0044053 74.7147577,59.5044053 74.1090308,58.7169604 Z" id="path86"></path>
                        <path d="M59.2153084,63.80837 C59.2070485,63.5726872 59.1971366,63.3353524 59.1877753,63.097467 C58.2153084,62.4587004 56.6453744,62.4664097 55.5781938,61.9295154 C57.1514317,61.8606828 58.3898678,61.4818282 59.4614537,60.9476872 C59.4377753,60.3540749 59.4151982,59.7610132 59.3920705,59.1674009 C57.6095815,57.9471366 55.9812775,56.1299559 53.8825991,54.9856278 C52.8903084,54.4444383 49.4078194,53.0518722 48.3520925,53.2979626 C47.7547907,53.436674 47.7009912,54.1779185 47.4622247,54.8765969 C46.9535242,56.3727974 45.7822687,58.7544053 45.6801211,61.0066079 C45.55,63.8513216 45.2628304,68.6189427 48.3284692,68.0330396 C50.801707,67.5611233 53.6782489,66.4218062 55.5930617,65.3755507 C56.7632159,64.7356828 57.439978,63.9449339 59.2153084,63.80837" id="path88" fill="#FFFFFF"></path>
                        <path d="M60.9856828,60.4140969 C60.7136564,61.9636564 60.3992291,62.405837 60.5209251,63.7577093 C64.6536344,66.5132159 65.4295154,59.0247797 60.9856828,60.4140969 Z" id="path94" stroke="#FFFFFF" stroke-width="2.5"></path>
                        <path d="M52.5268172,118.134361 C47.5239537,119.299559 45.0380507,116.040749 43.5215859,112.660793 C42.167511,112.988987 42.7063326,114.830396 43.048348,115.768722 C43.9438326,118.231278 47.5525881,121.509361 50.5012115,121.064978 C51.7700991,120.873899 53.4872247,119.713656 52.5268172,118.134361" id="path100" fill="#231F20"></path>
                        <path d="M76.902533,112.437225 C76.9812775,112.433921 77.0611233,112.431167 77.1398678,112.427863 C78.2703744,110.079295 79.2488987,107.59141 80.6751101,105.518172 C79.7197137,103.292952 73.4405286,101.323789 73.5374449,105.319383 C74.8953744,105.912996 77.2395374,105.440529 78.4432819,106.198789 C77.7472467,108.109031 76.7428414,109.735132 76.902533,112.437225" id="path102" fill="#231F20"></path>
                        <path d="M55.0881057,112.376101 C56.160793,110.409692 56.5099119,108.343612 58.0346916,106.857379 C58.7213656,106.188326 60.0567181,105.372797 59.3948238,103.512115 C59.2400881,103.073238 58.1095815,102.094714 57.4570485,101.902533 C55.0732379,101.198789 49.5186123,101.757159 51.3996696,104.729075 C53.3710903,104.637115 56.0209251,103.448789 57.4944934,104.879956 C56.3628855,106.688877 54.3454846,110.267621 55.0881057,112.376101" id="path104" fill="#231F20"></path>
                        <path d="M76.0077093,92.3904185 C72.4185022,90.0848018 68.4162996,87.5776432 62.5352423,88.159141 C61.2786344,89.251652 60.7995595,91.6828194 62.0203744,93.2885463 C62.655837,92.1960352 62.2566079,90.186674 64.027533,89.8843612 C67.3645374,89.313326 71.248348,91.9256608 73.6486784,92.8386564 C75.1371145,95.3480176 73.5203744,96.2709251 72.1795154,97.8860132 C69.4344714,101.194934 65.7522026,105.296256 65.8860132,110.25 C66.9955947,111.054515 67.0914097,109.022026 67.2505507,108.651982 C68.6839207,105.297357 72.2912996,101.007159 74.9240088,98.1360132 C75.5704846,97.4289648 76.6349119,96.7505507 76.753304,96.2830396 C77.0947137,94.9234581 75.8650881,93.2946035 76.0077093,92.3904185" id="path106" fill="#231F20"></path>
                        <path d="M28.6903084,94.8177313 C27.5653084,95.4598018 27.297522,98.2879956 25.9767621,98.3683921 C24.0892621,98.4829295 24.4334251,94.6993392 24.4409692,92.4867841 C23.1417401,93.6662996 22.9132709,97.2979075 23.8677313,99.1629956 C22.7799559,99.6971366 22.2942181,98.5737885 21.690859,98.1778634 C22.4662996,103.811123 29.9314427,100.790749 28.6903084,94.8177313" id="path108" fill="#231F20"></path>
                        <path d="M78.2929515,90.0446035 C76.6222467,86.8645374 74.2588106,83.3623348 69.3562775,83.2604626 C69.2566079,84.2874449 69.1800661,85.8502203 69.3617841,86.4686123 C73.1095815,86.8287445 75.4234581,88.7362335 78.2929515,90.0446035" id="path110" fill="#231F20"></path>
                        <path d="M54.8053965,87.9829295 C57.9322687,86.3386564 63.6789648,86.1618943 67.9289648,86.2863436 C68.1569383,85.3551762 68.1514317,84.2048458 68.1602423,83.0693833 C62.6971366,82.7968062 56.2378855,84.1486784 54.8053965,87.9829295" id="path112" fill="#231F20"></path>
                        <path d="M54.2110683,84.9168502 C56.373348,79.4878855 63.8050661,80.1128855 70.0721366,80.2626652 C69.7962555,79.5578194 69.1982379,78.7252203 68.4548458,78.4240088 C66.4465859,77.6068282 60.907489,76.9867841 58.1194934,78.467511 C56.3513216,79.407489 55.2153084,81.5313877 54.2465308,82.7764317 C53.7786894,83.3777533 51.4491189,84.9135463 54.2110683,84.9168502" id="path114" fill="#231F20"></path>
                        <path d="M75.746696,54.9703744 C73.2092511,50.6244493 70.7813877,46.160848 67.7709251,42.327533 C69.0330396,46.0384912 69.5732379,52.2495595 69.7637665,56.9845815 C72.404185,58.2202643 74.6651982,56.7064978 75.746696,54.9703744" id="path116" fill="#FFFFFF"></path>
                        <path d="M89.4008811,39.3507159 C86.560022,38.7819934 84.5638767,36.0209802 81.7924009,36.1981828 C83.3155286,38.3453744 85.9845815,39.2504956 89.4008811,39.3507159" id="path118" fill="#231F20"></path>
                        <path d="M90.654185,34.9047907 C88.3386564,34.6602423 85.6189427,34.2852974 83.2703744,34.4784692 C84.3821586,36.176707 88.6657489,35.5907489 90.654185,34.9047907" id="path120" fill="#231F20"></path>
                        <path d="M91.4564978,31.071696 C88.8540749,31.0153084 85.6194934,31.0671806 83.1459251,31.2747247 C84.6090308,32.8462555 89.7687225,31.8578744 91.4564978,31.071696" id="path122" fill="#231F20"></path>
                        <path d="M70.8502203,20.5820485 C71.2235683,17.3137665 72.5192731,14.0022577 72.3568282,10.4229626 C70.9179515,9.93772026 70.0914097,9.51332599 68.1635463,9.5159141 C68.027533,12.5578744 67.6205947,17.2081498 67.7422907,20.1079295 C68.6905286,20.0451542 70.0886564,20.7852974 70.8502203,20.5820485" id="path124" fill="#FFFFFF"></path>
                        <path d="M51.0156938,48.4422357 C51.834196,51.9890419 55.0413546,53.8259912 57.9537445,55.779185 C60.9598018,51.9640969 62.7879956,47.0578194 64.8012115,42.3232379 C60.0446035,43.7571035 55.1844714,46.0836454 51.0156938,48.4422357" id="path128" fill="#FFFFFF"></path>
                        <path d="M67.7422907,20.1079295 C67.6205947,17.2081498 68.027533,12.5578744 68.1635463,9.5159141 C70.0914097,9.51332599 70.9179515,9.93772026 72.3568282,10.4229626 C72.5192731,14.0022577 71.2235683,17.3137665 70.8502203,20.5820485 C70.0886564,20.7852974 68.6905286,20.0451542 67.7422907,20.1079295 L67.7422907,20.1079295 Z M37.7235132,36.5995595 C38.9947687,24.9128855 40.8360132,15.0887665 44.2131057,4.73998348 C51.708315,2.46420705 60.7439427,2.26588106 67.3689427,4.31946035 C66.152533,10.1603524 66.6839207,17.2713656 65.9730176,23.5044053 C65.4372247,28.1893172 65.7103524,32.9030837 64.9757709,37.6828194 C56.9482379,39.3528634 45.6015969,38.0732379 37.7235132,36.5995595 L37.7235132,36.5995595 Z M66.8738987,37.6094714 C66.8061674,32.5903084 67.0985683,27.6393172 67.4818282,22.6138767 C69.409141,22.9031938 70.7169604,23.0963656 72.5077093,23.4889317 C71.9262115,28.3269824 71.9977974,33.7709802 70.813326,38.0506608 C69.4443833,38.0375551 68.2389868,38.0665749 66.8738987,37.6094714 L66.8738987,37.6094714 Z M76.6508811,38.4185022 C75.7362335,38.6281938 74.6712555,38.426652 73.7973568,38.4096916 C74.2081498,34.3182269 75.2048458,29.8034141 75.5556167,25.5087004 C76.9306167,25.4659141 77.6651982,26.1144273 78.7962555,26.3325441 C78.8568282,30.1024229 78.4669604,35.2962555 76.6508811,38.4185022 L76.6508811,38.4185022 Z M91.4548458,24.8926762 C94.3210352,25.5887115 96.123348,29.099174 95.3215859,32.7042952 C94.7835903,35.1272026 93.8254405,39.6895374 92.8001101,41.2395374 C92.0424009,42.3860132 89.9878855,43.8870044 88.347467,42.8364537 C85.6789648,41.1276982 80.9779736,40.631663 79.0319383,38.5632709 C80.0077093,35.3143722 80.3105727,30.8518722 80.7131057,26.7352423 C84.0468062,26.5274229 88.1486784,27.6526432 90.9212555,26.4585903 C88.9856828,25.8316079 86.4741189,25.826652 84.8017621,24.9128855 C86.1685022,24.2527533 89.3683921,24.3861233 91.4548458,24.8926762 L91.4548458,24.8926762 Z M64.8012115,42.3232379 C62.7879956,47.0578194 60.9598018,51.9640969 57.9537445,55.779185 C55.0413546,53.8259912 51.834196,51.9890419 51.0156938,48.4422357 C55.1844714,46.0836454 60.0446035,43.7571035 64.8012115,42.3232379 Z M69.7637665,56.9845815 C69.5732379,52.2495595 69.0330396,46.0384912 67.7709251,42.327533 C70.7813877,46.160848 73.2092511,50.6244493 75.746696,54.9703744 C74.6651982,56.7064978 72.404185,58.2202643 69.7637665,56.9845815 L69.7637665,56.9845815 Z M64.1382159,58.9834802 C62.9977974,59.1062775 62.0297357,57.6723568 60.5468062,58.2924009 C60.2070485,57.9168502 59.8981278,57.5099119 59.5517621,57.1431718 C62.8270925,53.1959802 64.3155286,47.595815 66.8452643,42.9571586 C68.2026432,47.4129956 68.0462555,52.2947137 68.3452643,57.1580396 C66.4801762,57.0396476 65.4454846,58.8447137 64.1382159,58.9834802 Z M60.5209251,63.7577093 C60.3992291,62.405837 60.7136564,61.9636564 60.9856828,60.4140969 C65.4295154,59.0247797 64.6536344,66.5132159 60.5209251,63.7577093 Z M55.5930617,65.3755507 C53.6782489,66.4218062 50.801707,67.5611233 48.3284692,68.0330396 C45.2628304,68.6194934 45.55,63.8513216 45.6801211,61.0066079 C45.7822687,58.7544053 46.9535242,56.3727974 47.4622247,54.8765969 C47.7009912,54.1779185 47.7547907,53.436674 48.3520925,53.2979626 C49.4078194,53.0518722 52.8903084,54.4444383 53.8825991,54.9856278 C55.9812775,56.1299559 57.6095815,57.9471366 59.3920705,59.1674009 C59.4151982,59.7610132 59.4377753,60.3540749 59.4614537,60.9476872 C58.3898678,61.4818282 57.1514317,61.8606828 55.5781938,61.9295154 C56.6453744,62.4664097 58.2153084,62.4587004 59.1877753,63.097467 C59.1971366,63.3353524 59.2070485,63.5726872 59.2153084,63.80837 C57.439978,63.9449339 56.7632159,64.7356828 55.5930617,65.3755507 L55.5930617,65.3755507 Z M37.3036344,68.6976872 C35.7144273,67.0842511 41.7609581,64.8849119 43.6861233,64.7665198 C43.6753855,65.7874449 44.2679515,66.75 44.1485683,67.4823789 C41.8620595,67.8838106 38.8571035,67.6189427 37.3036344,68.6976872 L37.3036344,68.6976872 Z M56.8805066,67.939978 C56.8727974,67.782489 56.6674009,67.8397577 56.6338106,67.7114537 C58.6784141,66.1134361 60.1971366,65.7830396 62.9801762,65.9207048 C64.2351322,66.8314978 65.3480176,67.8964758 66.6547357,68.7494493 C63.6464758,68.4807269 59.8595815,66.6123348 56.8805066,67.939978 L56.8805066,67.939978 Z M74.8496696,62.4911894 C74.7637665,64.2835903 74.2929515,67.9697137 73.185022,68.6150881 C70.8595815,69.972467 66.7257709,65.8744493 64.9746696,65.2494493 C65.1651982,64.7009912 65.4796256,64.2665198 65.5038546,63.5655286 C66.5396476,63.8204846 67.8006608,63.6459251 68.6982379,63.2048458 C67.6602423,63.0886564 66.5093612,63.0963656 65.8226872,62.6018722 C65.5710352,61.8744493 65.8843612,60.8832599 65.7169604,59.873348 C68.1806167,59.1784141 70.9944934,58.80837 74.1090308,58.7169604 C74.7147577,59.5044053 74.9212555,61.0044053 74.8496696,62.4911894 L74.8496696,62.4911894 Z M34.6281938,67.1371145 C34.12913,67.4928414 30.7531388,71.8854626 30.2906388,71.7031938 C24.1817731,69.2940529 18.4697137,65.128304 13.3653634,61.188326 C18.2320485,50.7455396 20.1965859,37.9514868 20.5437225,25.6201542 C26.1187225,23.0126652 31.0155286,19.2537445 38.5806718,18.8612335 C37.7052313,25.0550661 36.9061123,30.5810573 36.409196,36.4124449 C34.50837,37.2137115 31.7812775,36.3761013 30.0024229,36.6609031 C29.9873348,38.8045705 32.719163,37.5996145 32.946696,39.0411894 C33.1181718,40.1315529 31.4436123,40.214152 31.9888767,41.9311123 C33.3795154,41.4256057 34.1098018,40.3090308 35.5928965,39.8897577 C36.9480727,42.8545154 35.5739537,48.1002203 35.7692731,50.5781938 C35.8062775,51.0434471 36.0015969,53.1557819 37.0437775,52.7851322 C37.9661344,52.4571035 36.9910793,47.1673458 37.0921806,44.8220815 C37.1842511,42.6613436 36.8312225,40.5705947 37.7062775,39.214152 C45.0165198,40.209196 52.4450441,40.8523678 60.3546256,41.0693833 C58.6145374,41.8160242 56.5473568,42.5226322 54.2809471,43.8001101 C53.0523128,44.4927313 49.1794053,45.9339207 48.8248899,47.1008811 C48.259196,48.9604075 50.3090859,49.9509361 50.6596916,51.5450991 C46.9696586,49.5325991 46.2497247,53.4741189 45.3768172,56.2665198 C44.5859031,58.7957048 44.1356828,60.685022 43.94163,62.1437225 C40.7628855,63.659141 37.3642621,65.1938326 34.6281938,67.1371145 L34.6281938,67.1371145 Z M71.6211454,71.1718062 C76.7109031,73.6398678 77.628304,61.9476872 75.6332599,58.1811674 C75.94163,57.0578194 77.0022026,56.6277533 77.435022,55.6178414 C74.5947137,50.5297907 71.439978,45.7803414 68.5418502,40.7521476 C70.6976872,42.094163 73.7769824,40.9921806 76.3138767,41.996696 C77.2411894,42.3634361 77.9124449,44.4862885 78.6145374,46.1845264 C80.5457048,50.8567731 82.5732379,56.7472467 83.4752203,61.2059471 C83.6789648,62.2219163 84.2340308,64.4355727 84.1095815,65.3397577 C83.8876652,66.9587004 81.6910793,68.159141 80.5737885,69.1602423 C78.5154185,71.0093612 77.219163,72.6365639 75.0721366,74.3656388 C74.2015419,73.0803965 72.3331498,72.2169604 71.6211454,71.1718062 L71.6211454,71.1718062 Z M22.9879405,116.30837 C20.5626652,113.639868 21.0703194,108.639868 21.3639317,105.082599 C25.7476872,107.840308 31.5661894,104.864537 31.5113436,100.174009 C33.6042952,100.229626 32.2932269,102.787996 31.9146476,104.436123 C30.6774229,109.819383 33.9990088,115.667952 32.0652533,120.590859 C28.3106278,120.306167 25.2260463,118.772577 22.9879405,116.30837 L22.9879405,116.30837 Z M40.3412996,131.796256 C34.850826,130.240088 27.814152,126.250551 25.5579846,121.318282 C27.305011,121.572137 28.5177863,122.453194 30.2411894,122.562225 C30.892511,122.604626 31.745815,122.289097 32.4943833,122.47522 C33.9861233,122.845264 35.2450991,126.189978 36.3704846,127.434471 C37.467511,128.64978 38.7860683,129.169053 39.6884361,130.276982 C40.2681718,130.556718 41.1253304,130.537445 41.1582599,131.40804 C40.9069934,131.676762 40.6424009,131.881608 40.3412996,131.796256 L40.3412996,131.796256 Z M68.9223568,130.332599 C63.2235683,133.547907 53.5775881,135.96641 47.5155837,132.944383 C42.624174,130.505507 36.0123348,126.470264 33.7580947,121.356828 C35.8639317,116.422357 33.1343062,111.900881 32.9600771,106.890969 C32.8675661,104.22522 34.2151982,101.898128 34.3184471,98.9961454 C33.5978524,97.8072687 31.3962555,97.660793 29.8722467,97.7422907 C29.3592511,100.309471 28.4611784,103.194934 25.8176211,103.484581 C22.0769824,103.893722 19.3419604,100.797907 19.1720264,97.5627753 C18.9709251,93.7582599 22.094163,87.4526432 26.5209802,87.8904185 C28.2310573,88.0594714 28.6511564,89.7736784 30.5143722,89.7560573 C31.5242291,87.7411894 28.9566079,87.1084802 28.6924559,85.6674009 C28.6236233,85.2951542 28.9053965,83.8403084 29.0692731,83.1580396 C29.873348,79.8359031 31.665804,75.5363436 33.4300661,73.0071586 C35.6692731,69.7990088 40.0685573,69.3155286 44.8014317,69.0011013 C45.6467511,70.8221366 48.760793,70.6723568 50.7898678,70.1960352 C48.3581498,71.159141 46.0974119,73.4939427 44.2238436,75.5605727 C42.0717511,77.9317181 39.8917401,80.4752203 39.7816079,83.5743392 C43.8485132,77.9322687 47.2084251,73.0049559 54.6036344,70.5231278 C60.1993392,68.6464758 66.7345815,71.3832599 71.034141,74.402533 C72.8182819,75.657489 73.8832599,77.6486784 75.1514317,79.4713656 C79.8964758,86.2968062 82.1106828,96.0390969 81.6238987,105.481828 C81.4234581,109.376101 81.4322687,113.257159 80.1255507,115.877203 C78.7599119,118.61674 74.1409692,121.067731 71.4372247,118.589758 C70.9361233,121.253855 73.6855727,122.901432 76.9151982,121.942731 C74.6123348,124.914648 72.1954846,128.485683 68.9223568,130.332599 L68.9223568,130.332599 Z M79.5396476,42.4651982 C83.9928414,44.6790198 92.313326,48.4239537 95.1051762,42.4570485 C96.1354626,40.2575991 97.344163,36.5395925 97.8777533,34.269163 C98.6316079,31.0660793 97.0605727,24.3335903 93.7681718,23.2587555 C90.8601322,22.3095264 87.4669604,22.3673458 83.964207,23.0709802 C83.5517621,23.4140419 83.092511,24.0120595 82.7714758,24.6354075 C80.2703744,24.7324339 77.9284141,24.5011564 75.9526432,23.4730176 C76.1398678,21.623348 74.8887665,21.3264868 73.715859,20.9455396 C72.8463656,17.4979075 75.4553965,12.9955947 74.8309471,9.85187225 C74.3854626,7.61222467 71.6299559,7.2659141 69.6046256,6.8469163 C69.5385463,5.60231278 69.6932819,4.56338656 69.8314978,3.51046256 C69.3683921,1.80405837 67.2912996,0.832659692 65.3232379,0.594757709 C58.8480176,-0.183911894 49.0163546,-0.533667952 42.7880507,1.70597467 C41.0500551,5.96905286 39.6808921,11.15413 38.2332599,16.0220815 C32.1588106,15.373348 27.24587,18.6431167 22.6143172,20.7852974 C21.0107379,21.5286894 18.7924009,21.9382159 18.193337,23.2146476 C17.6125551,24.4504405 17.8502203,26.8188877 17.7061123,29.0561674 C17.3393722,34.7703744 17.0253304,40.2819383 15.5163546,46.1327093 C14.8388216,48.7582048 13.6578744,51.0748899 12.8340308,53.6046806 C12.0725771,55.9493392 10.7421806,58.8469163 10.3952093,61.185022 C9.88072687,64.6503304 13.1437775,64.8430617 15.2302863,66.3447137 C18.4557269,68.6668502 20.9875,69.9509912 24.4807269,72.0468062 C25.5153634,72.6674009 28.6354626,74.2384361 28.9903634,74.9620044 C29.69587,76.3964758 27.7793502,78.4190529 27.2669604,79.5435022 C26.4564427,81.3215859 26.0337555,82.8320485 25.9176211,84.5864537 C22.9872797,85.0495595 20.7659141,86.7935022 19.4241189,88.7599119 C17.2045154,92.0143172 15.6651982,98.0352423 17.5856278,102.615088 C17.7362335,102.975771 18.4873348,103.685022 18.5981278,104.238987 C18.816685,105.329846 18.1868392,106.780286 18.1476872,107.940529 C17.9459251,113.893172 19.1548458,119.022026 23.1621696,120.817181 C24.7889868,127.297907 30.6115639,129.452643 36.0973018,132.673458 C38.1479075,133.877203 40.40837,134.646476 42.7428965,135.505507 C51.1174559,138.587555 63.9664097,138.007159 70.9168502,132.750551 C73.8639868,130.521476 78.5748899,125.814978 80.2599119,122.407489 C84.7103524,113.411344 84.3942731,98.376652 81.2813877,87.43337 C80.8628855,85.964207 80.2560573,83.8045154 79.4085903,82.0396476 C78.8177313,80.8072687 76.9812775,78.3414097 77.2042952,77.253304 C77.4339207,76.128304 81.3915198,73.123348 82.2400881,72.3050661 C83.7681718,70.8309471 86.6712555,68.8744493 86.9063877,67.0143172 C87.159141,65.0346916 86.034141,62.3265419 85.464207,60.4162996 C83.5589207,54.0413546 81.6998899,48.1486233 79.5396476,42.4651982 L79.5396476,42.4651982 Z" id="path130" fill="#231F20"></path>
                        <path d="M65.9234581,55.0297357 C65.9234581,54.4724119 65.4713656,54.0204846 64.9135463,54.0204846 C64.3562775,54.0204846 63.904185,54.4724119 63.904185,55.0297357 C63.904185,55.5870044 64.3562775,56.0396476 64.9135463,56.0396476 C65.4713656,56.0396476 65.9234581,55.5870044 65.9234581,55.0297357" id="path134" fill="#1D1919"></path>
                        <path d="M66.9328194,50.3491189 C66.9328194,49.7917952 66.4807269,49.3398678 65.9229075,49.3398678 C65.3656388,49.3398678 64.9135463,49.7917952 64.9135463,50.3491189 C64.9135463,50.9064427 65.3656388,51.3590308 65.9229075,51.3590308 C66.4807269,51.3590308 66.9328194,50.9064427 66.9328194,50.3491189" id="path136" fill="#1D1919"></path>
                    </g>
                </g>
            </g>
            <g id="Group-3" transform="translate(44.000000, 413.000000)">
                <g id="Page-1">
                    <path d="M32.94,73.81 C32.94,73.81 26.9937924,82.8245805 22.6322387,89.2217903 C21.957341,90.2109784 26.9937924,90.28 26.9937924,90.28 L32.94,73.81 Z" id="Fill-3" fill-opacity="0.15" fill="#FFFFFF"></path>
                    <path d="M35.99,55.2824242 C35.99,55.2824242 34.1915873,59.7107799 33.2063571,62.0582982 C32.1369413,64.6104534 28.06,65.88 28.06,65.88 C28.06,65.88 30.1730981,63.6921274 30.1730981,58.1498797 C30.1730981,55.8244941 33.2148125,54.9 33.2148125,54.9 L35.99,55.2824242 Z" id="Fill-5" fill-opacity="0.15" fill="#FFFFFF"></path>
                    <path d="M8.54,11.2031106 C8.54,11.2031106 14.8141733,9.96424462 18.9968338,13.325081 C23.1813203,16.6848056 24.4,19.3385655 24.4,19.3385655 L17.349772,25.01 C17.349772,25.01 13.942801,23.4072194 12.8972271,18.8082582 C11.8512881,14.2096676 12.5488243,12.0876973 8.54,11.2031106" id="Fill-9" fill-opacity="0.15" fill="#FFFFFF"></path>
                    <path d="M32.2490893,44.9709257 C29.5761468,41.0852465 25.17123,39.3903503 21.6541623,39.1094712 C15.6567543,38.6287571 12.81,40.8002967 12.81,40.8002967 C12.81,40.8002967 22.6316274,41.2262412 25.4624821,45.0338367 C30.732844,52.1209456 38.4210318,52.6963961 39.65,51.1402741 C38.2284296,51.2128068 36.6644854,50.4915507 34.9906893,48.8706674 C33.9449281,47.8563201 33.0971894,46.2043513 32.2490893,44.9709257" id="Fill-11" fill-opacity="0.15" fill="#FFFFFF"></path>
                    <path d="M20.7173665,69.8257257 C20.5974206,65.7632124 20.23021,60.3020159 15.7025078,58.6434891 C15.7025078,58.6434891 4.74627261,54.868833 6.82874568,51.0464794 C8.90903891,47.2226693 7.25308771,45.14 7.25308771,45.14 C7.25308771,45.14 1.13536893,49.7167751 2.69431728,54.5819198 C3.65235662,57.5682928 5.25926144,59.7303366 14.0850671,63.8756496 C18.3186782,71.7559315 14.9591827,85.9402933 15.1608178,86.0069241 C15.1742868,86.0114139 15.196263,86.011061 15.2260163,86.0053873 C15.0081162,87.4096744 14.7997335,88.6766339 14.64,89.4959647 C16.2381865,89.8159415 17.5833938,88.8746187 19.518886,89.67 C19.9832289,88.3922819 21.6091592,83.2266814 22.131545,78.5255399 C22.7576048,72.8951157 22.5294489,64.66 22.5294489,64.66 C22.5294489,64.66 21.6741407,67.970865 20.7173665,69.8257257 Z" id="Combined-Shape" fill-opacity="0.15" fill="#FFFFFF"></path>
                    <path d="M29.7694223,18.3 C25.1872882,20.616771 18.91,23.8430839 18.91,23.8430839 L21.38062,25.0732374 C21.1447189,25.4533552 21.0309356,25.679839 21.0309356,25.679839 L23.5667818,26.8277659 C23.5667818,26.8277659 29.7571018,31.2907238 33.55,34.16 C32.2853382,30.2845296 28.5732479,24.1961534 28.5732479,24.1961534 C28.5732479,24.1961534 27.5216581,21.3986452 29.7694223,18.3" id="Fill-15" fill-opacity="0.15" fill="#FFFFFF"></path>
                    <path d="M45.14,113.460935 C31.0146505,113.460935 26.23,106.14 26.23,106.14 L28.4375174,111.628011 C29.2719692,114.002278 38.1732727,121.39 45.1185572,121.39" id="Fill-17" fill-opacity="0.15" fill="#FFFFFF"></path>
                    <path d="M28.06,101.410227 C28.06,101.410227 29.3566534,109.19 34.5483433,109.19 C38.9600832,109.19 40.26,102.618452 40.26,101.26 L28.06,101.410227 Z" id="Fill-19" fill-opacity="0.15" fill="#FFFFFF"></path>
                    <path d="M10.37,12.81 L9.7873161,12.2 C8.06882082,12.2959485 10.37,12.81 10.37,12.81" id="Fill-25" fill="#FDC168"></path>
                    <g id="Group-35" transform="translate(32.330000, 0.000000)">
                        <mask id="mask-2" fill="white">
                            <use xlink:href="#path-1"></use>
                        </mask>
                        <g id="Clip-34"></g>
                        <path d="M0.371789151,14.7190095 C0.0662543562,8.38081905 5.3276297,3.33270595 7.15054367,3.11775357 C7.25128559,4.19178929 7.04869874,8.38081905 8.87161271,9.66944405 C9.40252997,6.24763452 11.1963979,2.475075 18.2814226,0.00348571429 C16.7640434,3.97792619 18.0792034,7.30714643 18.7053475,8.85030119 C23.5435333,4.51349167 26.8033064,5.23024167 26.8033064,5.23024167 C26.8033064,5.23024167 23.442056,10.9587952 24.7564807,14.7179202 C15.0437097,13.9655869 0.41921874,15.7367655 0.371789151,14.7190095" id="Fill-33" fill="#FFFFFF" mask="url(#mask-2)"></path>
                    </g>
                    <path d="M12.5694482,24.4 C10.290989,22.4781422 11.9892599,20.6944788 11.8092388,18.5109337 C11.7112755,17.3487775 11.6209035,16.2527783 11.2438715,15.6481778 C9.14760238,12.2815268 4.20100005,11.2605054 4.15183768,11.2498468 L1.83,10.7871161 L3.36704714,8.95971559 C3.56622705,8.72302092 9.87708524,2.60093529 19.6430461,5.80660443 C26.4748086,8.04675043 31.5320262,15.6430322 31.72,15.9499267 L28.2945393,17.5876774 C28.2544142,17.5229907 24.2563565,10.3828239 18.3959124,8.46133364 C13.6578886,6.90738167 9.2918361,8.38562075 7.4211355,9.35481928 C9.4096812,10.1619334 12.0091417,11.6317191 13.5751079,14.1460487 C14.3143509,15.333565 14.4387028,16.8287108 14.5590783,18.2764442 C14.7177716,20.1931565 14.8663432,22.0025476 16.2540957,23.1742597 L12.5694482,24.4 Z" id="Fill-36" fill="#463013"></path>
                    <path d="M6.1,51.85 C6.1,51.85 8.8541698,48.2776032 9.66991182,41.3261769 C9.9903819,38.5881979 9.42123537,33.1880633 8.510809,31.11 C8.67624648,36.2177257 7.43494517,41.3261769 7.43494517,41.3261769 C7.43494517,41.3261769 6.59769974,50.8109684 6.1,51.85" id="Fill-38" fill="#FFFFFF"></path>
                    <path d="M21.3945601,20.74 C21.3931016,20.7324359 20.4654336,16.7281253 17.8935618,14.7066994 C14.2660302,11.8561 9.83590541,13.3725296 9.79324143,13.3858569 L9.15,11.4231432 C9.36441381,11.3543455 14.4275699,9.77848344 19.0932582,13.0184559 C23.7873891,16.2767984 24.3507723,19.2304142 24.4,19.5571129 L21.3945601,20.74 Z" id="Fill-40" fill="#463013"></path>
                    <path d="M15.2956563,49.41 C15.2956563,49.41 13.7922214,47.3081968 14.0625221,44.9967066 C14.1974921,43.8552343 14.7391761,42.6834543 15.7063402,42.2676046 C17.5035332,41.4965205 18.3,43.4859033 18.3,43.4859033 C18.3,43.4859033 15.7702163,44.0955813 15.2956563,49.41" id="Fill-42" fill="#FFFFFF"></path>
                    <path d="M32.2939281,52.5782482 C32.3577369,52.695543 32.3903747,52.761228 32.3903747,52.761228 C32.3903747,52.761228 27.6252565,56.2807922 22.7420556,52.7092574 C20.1277315,50.7960899 20.3748986,46.062435 21.1758081,44.0554317 C23.2583928,44.5199189 25.0248677,45.3572229 26.5012695,46.3349197 C24.6354144,44.6960414 23.0024245,43.4895296 23.0064584,43.4617398 L20.8857351,42.8709352 L16.7638383,41.48 C16.711031,41.7892972 15.2078589,48.7244843 19.5475855,53.4505602 C21.4710151,55.5459857 30.4885813,60.2384973 34.77,52.214815 L32.2939281,52.5782482 Z" id="Fill-44" fill="#FFFFFF"></path>
                    <path d="M31.6666617,53.4254872 C34.3111561,57.4362368 40.9834799,55.1443284 40.8685333,50.9041358 C40.8685333,50.9041358 36.4101964,53.3559699 32.4712878,48.8416704 C30.1716332,46.2061378 22.802762,38.939243 12.81,41.3543374 C19.7107712,42.8664279 28.8468557,49.1492753 31.6666617,53.4254872" id="Fill-46" fill="#FFFFFF"></path>
                    <path d="M11.6486902,64.9774354 C12.2915579,65.3479644 14.5587624,67.6899119 14.5602235,71.1926316 C14.5602235,72.9490922 14.3845307,81.772565 13.5133718,87.1636347 C14.8243106,88.0132646 15.737475,88.1939749 17.0429348,89.06 C17.6963952,82.81675 18.1650312,73.768118 17.9466023,70.1152921 C17.6971258,65.9513037 15.4616994,63.1568518 13.3888162,61.965111 C12.739739,61.5927603 12.0614405,61.2266033 11.3783935,60.8582603 C7.82801037,58.9444069 4.15672428,56.9653374 4.15672428,53.5853987 C4.15672428,50.9414173 5.18713897,50.1143761 6.27782251,49.2377853 L6.39543809,49.1426938 C7.11939481,48.559393 7.9386859,47.8981244 8.42412408,46.8113121 C9.74857771,43.8408862 9.9651803,36.274006 8.42412408,34.3535945 C7.6559702,33.3964857 5.59769768,30.1779475 6.1894282,28.015253 C6.41479717,27.1896692 6.9360314,26.5779502 7.78454375,26.1443911 C8.68236697,25.685693 9.89541454,25.453247 11.3886209,25.453247 C14.3217049,25.453247 17.5747618,26.3433182 19.2531579,26.8737904 C25.2504563,28.7697914 32.4874667,34.2362786 34.5618109,35.8666791 C34.620984,35.912221 34.6564147,35.9388175 34.6626243,35.9431895 L35.99,36.8638649 L35.1597509,35.4782977 C35.1086137,35.3919502 29.8509785,26.7688619 20.4501338,23.60716 C18.6212481,22.9917976 15.0281289,21.96 11.4971049,21.96 C9.39463519,21.96 7.61104251,22.3265213 6.19855984,23.0479053 C4.47669708,23.9263177 3.31113406,25.3275514 2.8264264,27.099314 C1.6393127,31.4425553 5.50565071,36.278378 5.63751165,36.4328562 C6.08861485,37.2354869 6.27928358,43.0655807 5.23791091,45.3995127 C5.095092,45.7215852 4.70206605,46.0381925 4.20530462,46.4378684 C4.04970141,46.5635641 3.87546965,46.6939961 3.69064518,46.8339009 C2.22154632,47.9400229 0,49.611229 0,53.4633463 C0,58.7341854 5.35552648,61.5920316 9.65945286,63.8898945 C10.3655116,64.2684389 11.0397921,64.6273092 11.6486902,64.9774354" id="Fill-48" fill="#FFFFFF"></path>
                    <path d="M12.5694482,24.4 C10.290989,22.4781422 11.9892599,20.6944788 11.8092388,18.5109337 C11.7112755,17.3487775 11.6209035,16.2527783 11.2438715,15.6481778 C9.14760238,12.2815268 4.20100005,11.2605054 4.15183768,11.2498468 L1.83,10.7871161 L3.36704714,8.95971559 C3.56622705,8.72302092 9.87708524,2.60093529 19.6430461,5.80660443 C26.4748086,8.04675043 31.5320262,15.6430322 31.72,15.9499267 L28.2945393,17.5876774 C28.2544142,17.5229907 24.2563565,10.3828239 18.3959124,8.46133364 C13.6578886,6.90738167 9.2918361,8.38562075 7.4211355,9.35481928 C9.4096812,10.1619334 12.0091417,11.6317191 13.5751079,14.1460487 C14.3143509,15.333565 14.4387028,16.8287108 14.5590783,18.2764442 C14.7177716,20.1931565 14.8663432,22.0025476 16.2540957,23.1742597 L12.5694482,24.4 Z" id="Fill-50" fill="#463013"></path>
                    <path d="M12.5594095,24.4 L12.4119327,24.27696 C10.7183045,22.8607222 11.0190557,21.4656605 11.3096612,20.1158716 C11.4419193,19.4933695 11.5814244,18.8489613 11.5248976,18.1884884 C11.4324981,17.0778426 11.3440845,16.0299946 11.0121711,15.500594 C9.01090698,12.3168885 4.17460935,11.2967884 4.12677903,11.2872957 L1.22,10.7129874 L3.14625745,8.44350195 C3.18140549,8.4011499 7.24335923,4.27 14.1218666,4.27 C15.9970326,4.27 17.9182171,4.5843544 19.8296182,5.20649134 C26.9766276,7.52855174 32.0752673,15.3523618 32.12346,15.4297639 L32.33,15.7620083 L28.2680463,17.6868358 L28.1049884,17.4261516 C27.6679932,16.6754981 23.8165653,10.2759581 18.3689817,8.5055696 C17.0308197,8.07000073 15.6212747,7.85020822 14.1802051,7.85020822 C11.5701915,7.85020822 9.4536998,8.56690705 8.32751316,9.0481139 C10.2095638,9.90245688 12.4920122,11.3398707 13.9367053,13.6349134 C14.7219197,14.8850289 14.8487425,16.4129885 14.9737536,17.8891033 C15.1266657,19.7248454 15.2712437,21.4510563 16.5492554,22.5200803 L17.0311821,22.923155 L12.5594095,24.4 Z" id="Fill-52" fill="#FFFFFF"></path>
                    <path d="M21.3945601,20.74 C21.3931016,20.7324359 20.4654336,16.7281253 17.8935618,14.7066994 C14.2660302,11.8561 9.83590541,13.3725296 9.79324143,13.3858569 L9.15,11.4231432 C9.36441381,11.3543455 14.4275699,9.77848344 19.0932582,13.0184559 C23.7873891,16.2767984 24.3507723,19.2304142 24.4,19.5571129 L21.3945601,20.74 Z" id="Fill-54" fill="#FFFFFF"></path>
                    <path d="M34.3500794,107.36 L34.3500794,107.36 C33.3176864,107.36 32.2640598,106.985657 31.5336967,106.353701 C30.9746669,105.872142 29.084143,104.136551 28.2505406,102.01015 C27.9393583,101.214991 28.0092828,100.57901 28.4606802,100.121236 C28.7714964,99.8072705 29.4172911,99.4325615 30.7286498,99.4325615 L31.6614645,99.4310978 C32.7729344,99.43 34.6444212,99.43 36.2438981,99.43 L37.7774776,99.43 C38.7747253,99.43 39.4897123,99.6455309 39.900839,100.065615 C40.4287506,100.608284 40.2596139,101.298056 40.1120769,101.661056 C39.8550769,102.297037 38.7911996,104.366353 36.9907356,106.290762 C36.3464052,106.979802 35.4080991,107.36 34.3500794,107.36" id="Fill-58" fill="#FFFFFF"></path>
                    <path d="M35.4403893,53.3063939 L31.72,53.07 C31.72,53.07 32.6711072,54.72584 33.2871528,56.8674603 C33.9832185,59.290227 32.6510108,62.83 32.6510108,62.83 C32.6510108,62.83 37.6111645,57.282864 35.4403893,53.3063939" id="Fill-60" fill="#FFFFFF"></path>
                    <path d="M30.8431235,117.12 C17.5033459,116.119771 12.81,103.821447 12.81,101.26 L16.2937511,101.261437 L14.5518755,101.26 L16.2937511,101.26 C16.311052,102.367255 19.8562767,112.887434 31.11,113.731433 L30.8431235,117.12 Z" id="Fill-62" fill="#FFFFFF"></path>
                    <path d="M26.7571769,94.5894015 C26.5506663,93.4050639 26.5291396,92.2818791 26.7812576,91.1782342 C25.7764343,90.4292031 23.9732981,90.1509399 22.6203987,89.7159953 C21.5137795,89.0216036 15.8529828,90.4277557 11.7457582,85.4982626 C6.59977836,79.3254502 7.68268167,75.64 7.68268167,75.64 C6.36334934,77.0939164 5.08451643,76.5399229 3.0734103,83.3191972 C1.05938529,90.0995571 4.01876153,94.8260519 9.53434415,99.5717249 C12.1398066,101.81339 15.823794,102.736834 18.9922348,103.09 C17.9308582,102.033034 20.8052222,101.927373 22.7867747,101.192093 C22.6287905,99.6057389 22.8929488,98.065702 24.0856749,96.8256393 C24.8048131,96.0776938 25.7300971,95.6311699 26.6900427,95.2751088 C26.7440419,95.1520795 26.7889197,95.0380965 26.84,94.9201331 C26.8082572,94.8126635 26.7772441,94.7037464 26.7571769,94.5894015" id="Fill-64" fill="#000000"></path>
                    <path d="M22.8969461,101.30733 C22.7835802,100.974148 22.6980141,100.634448 22.6138922,100.292574 C22.5232717,99.9191936 22.071974,98.8613417 22.6283338,100.069125 C22.4853627,99.760208 22.3918538,99.4411503 22.3228955,99.1199196 C13.4839604,99.1086929 5.79420962,93.0212458 7.2802425,80.2230847 C6.12311534,78.6821193 4.50277629,83.3303662 4.50277629,83.3303662 C4.50277629,83.3303662 0.0778931649,96.2187037 11.5061936,101.213894 C15.3140626,102.879803 18.6789378,104.074187 19.4732217,103.59216 C21.1271373,103.928963 22.6200299,102.772605 23.18,102.01172 C23.0745769,101.77813 22.9789018,101.543817 22.8969461,101.30733" id="Fill-66" fill="#C9C9C9"></path>
                    <path d="M26.5757874,93.1867394 C26.5895431,92.1030556 26.8099967,91.0535209 27.3319903,90.0076189 C27.3685516,89.9356882 27.4109048,89.8666638 27.45,89.7965495 C24.0396658,89.7671233 20.1124059,89.4394388 16.7675924,88.0960052 C13.0915555,86.6203353 8.49316091,81.5717424 7.70329261,75.64 C7.70329261,75.64 0.779818267,81.0013826 2.81421782,92.4768775 C4.72409185,103.252683 13.7091152,106.765663 23.9560455,107.36 C23.9614754,107.289886 22.8038224,104.889652 23.1694351,103.420158 C17.3507628,103.844476 10.8439422,101.588467 7.70329261,96.4014619 C4.82725979,91.6536702 5.63377976,83.5487477 6.81604825,82.3608008 C9.69859694,91.4901913 20.0718627,93.3458589 26.5757874,93.1867394" id="Fill-68" fill="#FFFFFF"></path>
                    <path d="M27.7312062,87.0089534 C25.8344048,92.5255233 21.96,96.99 21.96,96.99 C21.96,96.99 27.2899597,96.7497641 27.5837517,95.8150212 C27.8015822,95.1260496 32.3965035,84.4667332 34.16,71.98 C32.5007643,74.6805324 27.8935551,86.5366001 27.7312062,87.0089534" id="Fill-70" fill="#FFFFFF"></path>
                    <path d="M57.34,73.81 C57.34,73.81 63.2847515,82.8245805 67.6477778,89.2217903 C68.3226765,90.2109784 63.2847515,90.28 63.2847515,90.28 L57.34,73.81 Z" id="Fill-72" fill-opacity="0.15" fill="#FFFFFF"></path>
                    <path d="M54.9,55.2824242 C54.9,55.2824242 56.6990305,59.7107799 57.682927,62.0582982 C58.7528593,64.6104534 62.83,65.88 62.83,65.88 C62.83,65.88 60.7166079,63.6921274 60.7166079,58.1498797 C60.7166079,55.8244941 57.6748382,54.9 57.6748382,54.9 L54.9,55.2824242 Z" id="Fill-74" fill-opacity="0.15" fill="#FFFFFF"></path>
                    <path d="M82.35,11.2031224 C82.35,11.2031224 76.0764045,9.96419095 71.8926685,13.3252049 C67.7103933,16.6851069 66.49,19.3390071 66.49,19.3390071 L73.5399438,25.01 C73.5399438,25.01 76.9476966,23.4071347 77.9935393,18.8079306 C79.0386517,14.2098382 78.3415449,12.0877558 82.35,11.2031224" id="Fill-78" fill-opacity="0.15" fill="#FFFFFF"></path>
                    <path d="M58.0306861,44.9709257 C60.7038086,41.0852465 65.1075764,39.3903503 68.6263264,39.1094712 C74.6241382,38.6287571 77.47,40.8002967 77.47,40.8002967 C77.47,40.8002967 67.6477114,41.2262412 64.8163047,45.0338367 C59.545588,52.1209456 51.8594123,52.6963961 50.63,51.1402741 C52.0513047,51.2128068 53.6160769,50.4915507 55.2889016,48.8706674 C56.3343718,47.8563201 57.182529,46.2043513 58.0306861,44.9709257" id="Fill-80" fill-opacity="0.15" fill="#FFFFFF"></path>
                    <path d="M75.6639177,86.0053898 C75.6936772,86.0110611 75.7156629,86.0114132 75.7291453,86.0069241 C75.9293389,85.9402933 72.5700115,71.7559315 76.8035052,63.8756496 C85.6298237,59.7303366 87.2371852,57.5682928 88.1952802,54.5819198 C89.7557724,49.7167751 83.6362449,45.14 83.6362449,45.14 C83.6362449,45.14 81.9816508,47.2226693 84.0620649,51.0464794 C86.1428423,54.868833 75.1874238,58.6434891 75.1874238,58.6434891 C70.6592929,60.3020765 70.2921998,65.7636121 70.1726123,69.8261716 C69.2164355,67.9713956 68.3611172,64.66 68.3611172,64.66 C68.3611172,64.66 68.131475,72.8951157 68.7576058,78.5255399 C69.2815112,83.2266814 70.9076258,88.3922819 71.3720213,89.67 C73.3077329,88.8746187 74.6516323,89.8159415 76.25,89.4959647 C76.0902485,88.6766343 75.8818423,87.4096759 75.6639177,86.0053898 Z" id="Combined-Shape" fill-opacity="0.15" fill="#FFFFFF"></path>
                    <path d="M60.5109401,18.3 C65.0916247,20.616771 71.37,23.8430839 71.37,23.8430839 L68.89938,25.0732374 C69.1356434,25.4533552 69.2494267,25.679839 69.2494267,25.679839 L66.7135806,26.8277659 C66.7135806,26.8277659 60.5228982,31.2907238 56.73,34.16 C57.9935747,30.2845296 61.705665,24.1961534 61.705665,24.1961534 C61.705665,24.1961534 62.759429,21.3986452 60.5109401,18.3" id="Fill-84" fill-opacity="0.15" fill="#FFFFFF"></path>
                    <path d="M45.14,113.460935 C59.2647977,113.460935 64.05,106.14 64.05,106.14 L61.8436819,111.628011 C61.0091339,114.002278 52.1060769,121.39 45.1614453,121.39" id="Fill-86" fill-opacity="0.15" fill="#FFFFFF"></path>
                    <path d="M62.83,101.410227 C62.83,101.410227 61.5318576,109.19 56.3414638,109.19 C51.930318,109.19 50.63,102.618452 50.63,101.26 L62.83,101.410227 Z" id="Fill-88" fill-opacity="0.15" fill="#FFFFFF"></path>
                    <path d="M80.52,12.81 L81.1033264,12.2 C82.8206055,12.2959485 80.52,12.81 80.52,12.81" id="Fill-94" fill="#FDC168"></path>
                    <path d="M78.3192358,24.4 C80.5976673,22.4781422 78.900863,20.6944788 79.0808819,18.5109337 C79.1770365,17.3487775 79.2674075,16.2527783 79.6444349,15.6481778 C81.7414017,12.2815268 86.6872212,11.2605054 86.7381904,11.2498468 L89.06,10.7871161 L87.5229714,8.95971559 C87.3237939,8.72302092 81.0130121,2.60093529 71.2457234,5.80660443 C64.4154895,8.04675043 59.358333,15.6430322 59.17,15.9499267 L62.5939733,17.5876774 C62.6355439,17.5229907 66.6339148,10.3828239 72.4946495,8.46133364 C77.2318929,6.90738167 81.5978927,8.38562075 83.4674862,9.35481928 C81.4804105,10.1619334 78.879897,11.6317191 77.3135882,14.1460487 C76.5747156,15.333565 76.4510882,16.8287108 76.3310756,18.2764442 C76.1723843,20.1931565 76.0223686,22.0025476 74.6346328,23.1742597 L78.3192358,24.4 Z" id="Fill-102" fill="#463013"></path>
                    <path d="M84.18,51.85 C84.18,51.85 81.4262488,48.2776032 80.6102198,41.3261769 C80.2896369,38.5881979 80.8579429,33.1880633 81.7686896,31.11 C81.6031939,36.2177257 82.8459729,41.3261769 82.8459729,41.3261769 C82.8459729,41.3261769 83.6835129,50.8109684 84.18,51.85" id="Fill-104" fill="#FFFFFF"></path>
                    <path d="M68.8862463,20.74 C68.8877047,20.7324359 69.8152839,16.7281253 72.3872744,14.7066994 C76.0144591,11.8561 80.4437956,13.3725296 80.4853616,13.3858569 L81.13,11.4231432 C80.9148775,11.3543455 75.8529348,9.77848344 71.1858697,13.0184559 C66.4921877,16.2767984 65.9303168,19.2304142 65.88,19.5571129 L68.8862463,20.74 Z" id="Fill-106" fill="#463013"></path>
                    <path d="M75.5950209,49.41 C75.5950209,49.41 77.0989754,47.3081968 76.8271372,44.9967066 C76.6939257,43.8552343 76.1520544,42.6834543 75.1845561,42.2676046 C73.3867421,41.4965205 72.59,43.4859033 72.59,43.4859033 C72.59,43.4859033 75.1202969,44.0955813 75.5950209,49.41" id="Fill-108" fill="#FFFFFF"></path>
                    <path d="M58.5961072,52.5776247 C58.5322976,52.6949167 58.4992926,52.7606002 58.4992926,52.7606002 C58.4992926,52.7606002 63.2633786,56.280081 68.1466492,52.7086308 C70.7624775,50.7955086 70.5153068,46.0619656 69.712919,44.0550098 C67.6317715,44.519486 65.8652714,45.3567702 64.3884818,46.3344439 C66.2547302,44.6956044 67.8881102,43.4891212 67.8822426,43.461332 L70.004463,42.8705414 L74.1264187,41.48 C74.17886,41.7896508 75.6824203,48.7246738 71.3411649,53.4506378 C69.4180745,55.5460137 60.4003796,60.2384143 56.12,52.2149218 L58.5961072,52.5776247 Z" id="Fill-110" fill="#FFFFFF"></path>
                    <path d="M59.2211759,53.4254872 C56.5766825,57.4362368 49.9061682,55.1443284 50.0214762,50.9041358 C50.0214762,50.9041358 54.4783658,53.3559699 58.4169116,48.8416704 C60.7169269,46.2061378 68.08688,38.939243 78.08,41.3543374 C71.1792312,42.8664279 62.0424268,49.1492753 59.2211759,53.4254872" id="Fill-112" fill="#FFFFFF"></path>
                    <path d="M79.243018,64.9774354 C78.5997784,65.3479644 76.3314551,67.6899119 76.3314551,71.1926316 C76.329994,72.9490922 76.5056886,81.772565 77.3786826,87.1636347 C76.0673653,88.0132646 75.1541916,88.1939749 73.8483533,89.06 C73.1948862,82.81675 72.7247844,73.768118 72.9450419,70.1152921 C73.1941557,65.9513037 75.4288743,63.1568518 77.5010479,61.965111 C78.150497,61.5927603 78.8288024,61.2266033 79.5133174,60.8582603 C83.0637365,58.9444069 86.7350599,56.9653374 86.7350599,53.5853987 C86.7350599,50.9414173 85.7035389,50.1143761 84.612479,49.2377853 L84.4963234,49.1426938 C83.771994,48.559393 82.9515988,47.8981244 82.4676168,46.8113121 C81.1427844,43.8408862 80.9254491,36.274006 82.4661557,34.3535945 C83.2343174,33.3964857 85.2940719,30.1779475 84.7023353,28.015253 C84.475503,27.1896692 83.9538982,26.5779502 83.1057425,26.1443911 C82.2075449,25.685693 80.9963114,25.453247 79.5016287,25.453247 C76.5703413,25.453247 73.3154251,26.3433182 71.6384731,26.8737904 C65.6411138,28.7697914 58.4040299,34.2362786 56.3285689,35.8666791 C56.2690299,35.912221 56.2350599,35.9388175 56.2281198,35.9431895 L54.9,36.8638649 L55.7306228,35.4782977 C55.7828563,35.3919502 61.0398144,26.7688619 70.4403892,23.60716 C72.2696587,22.9917976 75.8624491,21.96 79.3938743,21.96 C81.4963653,21.96 83.278515,22.3265213 84.6924731,23.0479053 C86.4143533,23.9263177 87.5795629,25.3275514 88.0646407,27.099314 C89.2517665,31.4425553 85.385024,36.278378 85.2531617,36.4328562 C84.8024192,37.2354869 84.6117485,43.0655807 85.6516707,45.3995127 C85.7948563,45.7215852 86.187521,46.0381925 86.6857485,46.4378684 C86.8413533,46.5635641 87.0141257,46.6939961 87.2000479,46.8339009 C88.6698922,47.9400229 90.89,49.611229 90.89,53.4633463 C90.89,58.7341854 85.5344192,61.5920316 81.2315449,63.8898945 C80.525479,64.2684389 79.8504611,64.6273092 79.243018,64.9774354" id="Fill-114" fill="#FFFFFF"></path>
                    <path d="M72.8352118,23.5743418 C71.9819661,22.1361348 69.7998232,19.3591211 64.7703568,16.9189026 C59.1576684,14.1965043 52.6617317,12.8147333 45.4600013,12.8110923 L45.4600013,12.81 L45.4460977,12.81 L45.432194,12.81 L45.432194,12.8107282 C38.2297318,12.8140051 31.7326974,14.1957761 26.1214726,16.9181744 C21.0920063,19.358757 18.9105951,22.1354066 18.0566176,23.5736136 L17.69,24.0560501 L21.9972078,25.01 L22.1336832,24.8385075 L22.2057627,24.681215 C22.271988,24.3979428 22.8497217,22.8687101 27.6512412,20.5384508 C32.7846192,18.0468938 38.7719746,16.7838204 45.4457318,16.7816358 C52.1198549,16.7838204 58.1042832,18.0468938 63.2376611,20.5384508 C68.0399124,22.8687101 68.6191096,24.3979428 68.6846032,24.681215 L68.7566827,24.8385075 L68.8916946,25.01 L73.2,24.0560501 L72.8352118,23.5743418 Z" id="Fill-116" fill="#FFFFFF"></path>
                    <path d="M78.3192358,24.4 C80.5976673,22.4781422 78.900863,20.6944788 79.0808819,18.5109337 C79.1770365,17.3487775 79.2674075,16.2527783 79.6444349,15.6481778 C81.7414017,12.2815268 86.6872212,11.2605054 86.7381904,11.2498468 L89.06,10.7871161 L87.5229714,8.95971559 C87.3237939,8.72302092 81.0130121,2.60093529 71.2457234,5.80660443 C64.4154895,8.04675043 59.358333,15.6430322 59.17,15.9499267 L62.5939733,17.5876774 C62.6355439,17.5229907 66.6339148,10.3828239 72.4946495,8.46133364 C77.2318929,6.90738167 81.5978927,8.38562075 83.4674862,9.35481928 C81.4804105,10.1619334 78.879897,11.6317191 77.3135882,14.1460487 C76.5747156,15.333565 76.4510882,16.8287108 76.3310756,18.2764442 C76.1723843,20.1931565 76.0223686,22.0025476 74.6346328,23.1742597 L78.3192358,24.4 Z" id="Fill-118" fill="#463013"></path>
                    <path d="M73.8586397,22.923155 L74.3391114,22.5200803 C75.6181953,21.4510563 75.7616845,19.7248454 75.9160442,17.8891033 C76.0399668,16.4122583 76.1678752,14.8842987 76.9530805,13.6349134 C78.395945,11.3406009 80.6801786,9.90282198 82.5622073,9.0481139 C81.4353091,8.56727215 79.3184797,7.85057332 76.7081341,7.85057332 C75.266719,7.85057332 73.8593644,8.07036583 72.5212181,8.5055696 C67.0718862,10.2763232 63.2212279,16.6758632 62.7849624,17.4261516 L62.6215441,17.6868358 L58.56,15.7620083 L58.7669,15.4297639 C58.8143674,15.3523618 63.9118607,7.52855174 71.0587868,5.20649134 C72.970528,4.5843544 74.8913278,4.27 76.7679213,4.27 C83.6467109,4.27 87.7086174,8.40224522 87.7430403,8.44350195 L89.67,10.7129874 L86.7628925,11.2872957 C86.7147004,11.2971535 81.8791838,12.3165234 79.8761312,15.5009591 C79.5442217,16.0303597 79.4572585,17.0771124 79.3630483,18.1884884 C79.308334,18.8493264 79.4463881,19.4933695 79.580094,20.1158716 C79.870696,21.4656605 80.1707191,22.8618175 78.476386,24.27696 L78.3292732,24.4 L73.8586397,22.923155 Z" id="Fill-120" fill="#FFFFFF"></path>
                    <path d="M68.8862463,20.74 C68.8877047,20.7324359 69.8152839,16.7281253 72.3872744,14.7066994 C76.0144591,11.8561 80.4437956,13.3725296 80.4853616,13.3858569 L81.13,11.4231432 C80.9148775,11.3543455 75.8529348,9.77848344 71.1858697,13.0184559 C66.4921877,16.2767984 65.9303168,19.2304142 65.88,19.5571129 L68.8862463,20.74 Z" id="Fill-122" fill="#FFFFFF"></path>
                    <path d="M53.8997047,106.290761 C52.099563,104.367084 51.0345616,102.297036 50.7771893,101.661055 C50.6296487,101.298422 50.4619723,100.608284 50.9902628,100.065615 C51.4017656,99.6455309 52.1149395,99.43 53.1122113,99.43 L54.6469264,99.43 C56.2464421,99.43 58.1168761,99.43 59.2291051,99.4310978 L60.1615763,99.4325615 C61.4722347,99.4325615 62.1173129,99.8072705 62.4285027,100.121236 C62.8802772,100.578278 62.9509355,101.214259 62.6397457,102.01015 C61.8061231,104.13655 59.9151872,105.872141 59.3561438,106.3537 C58.6239324,106.98529 57.572843,107.359999 56.540425,107.359999 C55.4820134,107.360731 54.5444168,106.980533 53.8997047,106.290761" id="Fill-126" fill="#FFFFFF"></path>
                    <path d="M55.4504092,53.3063939 L59.17,53.07 C59.17,53.07 58.2199984,54.72584 57.6037218,56.8674603 C56.9073951,59.290227 58.2401023,62.83 58.2401023,62.83 C58.2401023,62.83 53.2773581,57.282864 55.4504092,53.3063939" id="Fill-128" fill="#FFFFFF"></path>
                    <path d="M45.445,40.2157947 C43.1218417,40.2157947 40.0926782,40.1487332 37.82,38.43 C37.82,38.43 40.7954613,43.92 45.4410618,43.92 L45.445,43.2252731 L45.4489382,43.92 C50.0945387,43.92 53.07,38.43 53.07,38.43 C50.7973218,40.1487332 47.7660102,40.2157947 45.445,40.2157947" id="Fill-130" fill-opacity="0.15" fill="#FFFFFF"></path>
                    <path d="M51.85,40.26 C49.5165746,41.7020036 47.4326597,42.2017078 45.4448208,42.2460039 C43.4566233,42.2017078 41.3734254,41.7020036 39.04,40.26 C39.04,40.26 42.4381471,44.4944899 45.4279716,44.5270713 L45.4279716,44.53 C45.433349,44.53 45.4387264,44.5285357 45.4448208,44.5285357 C45.4501981,44.5285357 45.455934,44.53 45.4620284,44.53 L45.4620284,44.5270713 C48.4504189,44.4944899 51.85,40.26 51.85,40.26" id="Fill-132" fill-opacity="0.15" fill="#FFFFFF"></path>
                    <path d="M60.0472661,117.12 L59.78,113.731433 C71.0324198,112.887434 74.5779297,102.367255 74.5963365,101.26 L78.0799997,101.26 C78.0814722,103.820729 73.3862761,116.119771 60.0472661,117.12" id="Fill-134" fill="#FFFFFF"></path>
                    <path d="M63.4983762,91.1782342 C64.5042711,90.4292031 66.3062714,90.1509399 67.6591399,89.7159953 C68.7653689,89.0216036 74.4278603,90.4277557 78.534626,85.4982626 C83.6804881,79.3254502 82.5961501,75.64 82.5961501,75.64 C83.9165468,77.0939164 85.1942559,76.5399229 87.2067754,83.3191972 C89.2207543,90.0995571 86.2599864,94.8260519 80.74453,99.5717249 C78.1394921,101.81339 74.4552242,102.736834 71.2868559,103.09 C72.3482082,102.033034 69.47391,101.927373 67.4938623,101.192093 C67.6518429,99.6057389 67.3862311,98.065702 66.1935324,96.8256393 C65.47587,96.0776938 64.5491478,95.6311699 63.5903187,95.2751088 C63.5359559,95.1520795 63.4896198,95.0380965 63.44,94.9201331 C63.4724718,94.8126635 63.5023896,94.7037464 63.5224564,94.5894015 C63.7300567,93.4050639 63.7501236,92.2818791 63.4983762,91.1782342 Z" id="Fill-136" fill="#000000"></path>
                    <path d="M67.9919739,101.30733 C68.1067853,100.974148 68.1909081,100.634448 68.2750309,100.292574 C68.3670966,99.9191936 68.8183992,98.8613417 68.2613113,100.069125 C68.4042839,99.760208 68.4977938,99.4411503 68.5667529,99.1199196 C77.4057852,99.1086929 85.0956206,93.0212458 83.6084883,80.2230847 C84.7656281,78.6821193 86.3870682,83.3303662 86.3870682,83.3303662 C86.3870682,83.3303662 90.812361,96.2187037 79.3839348,101.213894 C75.5760239,102.879803 72.2111117,104.074187 71.4164581,103.59216 C69.7610801,103.928963 68.2685321,102.772605 67.71,102.01172 C67.8143412,101.77813 67.9121836,101.543817 67.9919739,101.30733" id="Fill-138" fill="#C9C9C9"></path>
                    <path d="M63.7027641,93.1867394 C63.6904563,92.1030556 63.4685549,91.0535209 62.9480096,90.0076189 C62.9110863,89.9356882 62.8687332,89.8666638 62.83,89.7965495 C66.23997,89.7671233 70.1675893,89.4394388 73.5124006,88.0960052 C77.1880732,86.6203353 81.7864647,81.5717424 82.5770565,75.64 C82.5770565,75.64 89.5001644,81.0013826 87.4657661,92.4768775 C85.5544454,103.252683 76.5708758,106.765663 66.3235903,107.36 C66.3185224,107.289886 67.4765366,104.889652 67.1102001,103.420158 C72.9274207,103.844476 79.434237,101.588467 82.5770565,96.4014619 C85.4509155,91.6536702 84.6447581,83.5487477 83.4628523,82.3608008 C80.5813915,91.4901913 70.2070465,93.3458589 63.7027641,93.1867394" id="Fill-140" fill="#FFFFFF"></path>
                    <path d="M66.1122538,103.111929 C64.5295203,107.655206 60.2759011,118.652245 45.750096,118.67135 C31.2224577,118.652245 26.9706717,107.655206 25.3875716,103.111929 C24.5120637,100.591193 24.5784234,98.7258995 25.5925167,97.5671176 C26.2850771,96.7750017 27.8762431,95.8300471 31.5025616,95.8300471 L35.2909297,95.8285775 C38.085369,95.8260056 41.5947331,95.8230664 45.750096,95.8215968 C49.9043589,95.8230664 53.4151896,95.8260056 56.2092623,95.8285775 L59.9961639,95.8300471 C63.6235822,95.8300471 65.2147482,96.7750017 65.9073086,97.5671176 C66.9206687,98.7266343 66.9881283,100.591193 66.1122538,103.111929 M68.5451978,95.6727995 C67.3052616,94.3295825 65.0255681,92.7284502 59.7692211,92.7284502 C59.7692211,92.7284502 49.8039028,92.7229392 45.7684274,92.72 L45.7508292,92.72 L45.7335977,92.72 C41.6988555,92.7229392 31.7306042,92.7284502 31.7306042,92.7284502 C26.4757237,92.7284502 24.1960302,94.3303173 22.9553608,95.6727995 C21.1482509,97.6277388 20.8648474,100.347239 22.1150492,103.74643 C25.4370664,112.79404 30.1053419,121.985671 45.7328644,121.99853 L45.7328644,122 C45.7387305,122 45.7438633,121.99853 45.750096,121.99853 C45.755962,121.99853 45.7614614,122 45.7676941,122 L45.7676941,121.99853 C61.3937502,121.984937 66.0616591,112.79404 69.3851428,103.74643 C70.6353446,100.347239 70.3512078,97.6277388 68.5451978,95.6727995" id="Fill-142" fill="#FFFFFF"></path>
                    <path d="M63.1584615,87.0089534 C65.0554945,92.5255233 68.93,96.99 68.93,96.99 C68.93,96.99 63.6005067,96.7497641 63.3059341,95.8150212 C63.0891941,95.1260496 58.4940842,84.4667332 56.73,71.98 C58.3875763,74.6805324 62.9957204,86.5366001 63.1584615,87.0089534" id="Fill-144" fill="#FFFFFF"></path>
                </g>
            </g>
        </g>
    </g>
</svg>