<?xml version="1.0" encoding="UTF-8"?>
<svg width="178px" height="576px" viewBox="0 0 178 576" version="1.1" xmlns="http://www.w3.org/2000/svg" xmlns:xlink="http://www.w3.org/1999/xlink">
    <!-- Generator: Sketch 43.2 (39069) - http://www.bohemiancoding.com/sketch -->
    <title>Artboard Copy 2</title>
    <desc>Created with Sketch.</desc>
    <defs></defs>
    <g id="Page-1" stroke="none" stroke-width="1" fill="none" fill-rule="evenodd">
        <g id="Artboard-Copy-2" fill="#FFFFFF">
            <g id="Group-9" transform="translate(33.000000, 0.000000)">
                <g id="Slack_Monochrome_White" transform="translate(6.000000, 0.000000)" fill-rule="nonzero">
                    <g id="Group">
                        <rect id="Rectangle-path" transform="translate(49.757794, 49.838841) rotate(-18.518296) translate(-49.757794, -49.838841) " x="42.7738308" y="43.0929681" width="13.9679257" height="13.4917464"></rect>
                        <g>
                            <rect id="Rectangle-path" transform="translate(49.757794, 49.838841) rotate(-18.518296) translate(-49.757794, -49.838841) " x="42.7738308" y="43.0929681" width="13.9679257" height="13.4917464"></rect>
                            <path d="M95.2380952,36.1111111 C85,1.98412698 70.2380952,-5.95238095 36.1111111,4.28571429 C1.98412698,14.5238095 -5.95238095,29.2857143 4.28571429,63.4126984 C14.5238095,97.5396825 29.2857143,105.47619 63.4126984,95.2380952 C97.5396825,85 105.47619,70.2380952 95.2380952,36.1111111 Z M78.015873,58.2539683 L71.5873016,60.3968254 L73.8095238,67.0634921 C74.6825397,69.7619048 73.2539683,72.6984127 70.5555556,73.5714286 C70,73.7301587 69.3650794,73.8888889 68.8095238,73.8095238 C66.7460317,73.7301587 64.7619048,72.3809524 64.047619,70.3174603 L61.8253968,63.6507937 L48.5714286,68.0952381 L50.7936508,74.7619048 C51.6666667,77.4603175 50.2380952,80.3968254 47.5396825,81.2698413 C46.984127,81.4285714 46.3492063,81.5873016 45.7936508,81.5079365 C43.7301587,81.4285714 41.7460317,80.0793651 41.031746,78.015873 L38.8095238,71.3492063 L32.3809524,73.4920635 C31.8253968,73.6507937 31.1904762,73.8095238 30.6349206,73.7301587 C28.5714286,73.6507937 26.5873016,72.3015873 25.8730159,70.2380952 C25,67.5396825 26.4285714,64.6031746 29.1269841,63.7301587 L35.5555556,61.5873016 L31.2698413,48.8095238 L24.8412698,50.952381 C24.2857143,51.1111111 23.6507937,51.2698413 23.0952381,51.1904762 C21.031746,51.1111111 19.047619,49.7619048 18.3333333,47.6984127 C17.4603175,45 18.8888889,42.0634921 21.5873016,41.1904762 L28.015873,39.047619 L25.7936508,32.3809524 C24.9206349,29.6825397 26.3492063,26.7460317 29.047619,25.8730159 C31.7460317,25 34.6825397,26.4285714 35.5555556,29.1269841 L37.7777778,35.7936508 L51.031746,31.3492063 L48.8095238,24.6825397 C47.9365079,21.984127 49.3650794,19.047619 52.0634921,18.1746032 C54.7619048,17.3015873 57.6984127,18.7301587 58.5714286,21.4285714 L60.7936508,28.0952381 L67.2222222,25.952381 C69.9206349,25.0793651 72.8571429,26.5079365 73.7301587,29.2063492 C74.6031746,31.9047619 73.1746032,34.8412698 70.4761905,35.7142857 L64.047619,37.8571429 L68.3333333,50.6349206 L74.7619048,48.4920635 C77.4603175,47.6190476 80.3968254,49.047619 81.2698413,51.7460317 C82.1428571,54.4444444 80.7142857,57.3809524 78.015873,58.2539683 Z" id="Shape"></path>
                        </g>
                    </g>
                </g>
                <g id="Group-3" transform="translate(19.000000, 216.000000)" fill-rule="nonzero">
                    <g id="Group-10">
                        <path d="M0.00254054256,25.1463327 C0.00254054256,25.1463327 -0.707082106,40.1412932 21.5933053,61.9708957 C43.8932202,83.8006885 46.4277203,92.6675555 45.2112919,98.7951807 L61.4295415,98.7951807 C61.4295415,98.7951807 62.9036277,73.4627172 37.7652223,55.6754245 C37.7652223,55.6754245 20.4600842,40.330314 17.6400339,28.1465628 C17.6400339,28.1465628 9.12125542,28.1421728 3.19418542,23.3891 C3.19418542,23.3891 -0.002188416,21.4781865 0.00254054256,25.1463327" id="path3962"></path>
                        <path d="M34.9230788,59.8119067 C39.3872005,62.987856 42.9954462,66.4065522 45.9344517,69.8795181 C48.0783793,67.5872843 50.4777502,65.127108 53.172621,62.4752276 C75.4032185,40.5947654 74.6962672,25.0962849 74.6962672,25.0962849 C74.7009493,21.4191624 71.5140649,23.4521338 71.5140649,23.4521338 C65.6054287,28.2163952 57.1131383,28.3378126 57.1131383,28.3378126 C54.3023205,40.5498682 37.0505108,56.1649845 37.0505108,56.1649845 C35.8826393,56.9960439 34.790645,57.8488112 33.7349398,58.7115523 C34.4824158,59.4179382 34.9230788,59.8119067 34.9230788,59.8119067" id="path3966"></path>
                        <path d="M34.939759,83.384807 C32.0142443,79.5966798 28.1121107,75.1623058 22.9502803,69.8795181 C12.4237977,85.0294865 13.2692043,100 13.2692043,100 L29.7567843,100 C29.0252833,96.1495642 29.6308674,91.2778343 34.939759,83.384807" id="path3970"></path>
                        <path d="M28.9602486,28.9247445 L45.2926509,28.9247445 C45.2926509,28.9247445 47.4265781,28.629264 46.9061915,31.4091319 C46.1662108,35.3624384 37.3494048,43.373494 37.3494048,43.373494 C37.3494048,43.373494 30.9029351,37.4837423 28.0319121,31.9514088 C28.0319121,31.9514088 26.8724503,28.9247445 28.9602486,28.9247445" id="path3974"></path>
                        <path d="M66.2650602,13.2532538 C66.2650602,17.2454911 63.0286271,20.4819277 59.0363901,20.4819277 C55.0441455,20.4819277 51.8072289,17.2454911 51.8072289,13.2532538 C51.8072289,9.26051793 55.0441455,6.02409639 59.0363901,6.02409639 C63.0286271,6.02409639 66.2650602,9.26051793 66.2650602,13.2532538" id="path3978"></path>
                        <path d="M24.0963855,13.2532538 C24.0963855,17.2454911 20.8599574,20.4819277 16.8677131,20.4819277 C12.8754688,20.4819277 9.63855422,17.2454911 9.63855422,13.2532538 C9.63855422,9.26051793 12.8754688,6.02409639 16.8677131,6.02409639 C20.8599574,6.02409639 24.0963855,9.26051793 24.0963855,13.2532538" id="path3982"></path>
                        <path d="M45.7831325,7.22917252 C45.7831325,11.2213947 42.5467056,14.4578313 38.5544609,14.4578313 C34.5622177,14.4578313 31.3253012,11.2213947 31.3253012,7.22917252 C31.3253012,3.23642154 34.5622177,0 38.5544609,0 C42.5467056,0 45.7831325,3.23642154 45.7831325,7.22917252" id="path3986"></path>
                    </g>
                </g>
                <text id="Slack" font-family="ProximaNova-Light, Proxima Nova" font-size="34" font-weight="300">
                    <tspan x="17.145" y="142">Slack</tspan>
                </text>
                <text id="Jira" font-family="ProximaNova-Light, Proxima Nova" font-size="34" font-weight="300">
                    <tspan x="30.126" y="359">Jira</tspan>
                </text>
                <text id="Docker" font-family="ProximaNova-Light, Proxima Nova" font-size="34" font-weight="300">
                    <tspan x="3.392" y="569">Docker</tspan>
                </text>
                <g id="Group-7" transform="translate(0.000000, 444.000000)" fill-rule="nonzero">
                    <g id="Group-6">
                        <path d="M96.9347628,30 C96.6337232,25.5 94.2254061,21.6 90.0108512,18.3 L88.505653,17.1 L87.3014945,18.6 C85.194217,21.9 84.2910981,26.1 84.5921378,29.7 C84.8931774,32.1 85.7962963,34.8 87.3014945,36.6 C86.0973359,37.5 82.1838207,39.3 77.0661468,39.3 L1.20415854,39.3 C-0.301039636,47.4 2.10727745,78 37.3289149,78 C63.5193632,78 84.8931774,66.3 94.8274854,41.7 C98.1389214,41.7 106.568031,42.3 110.782586,34.2 L111.986745,32.1 L110.481546,30.9 C107.77219,29.4 101.450357,28.8 96.9347628,30 Z" id="Shape" stroke="#FFFFFF" stroke-width="0.7"></path>
                        <rect id="Rectangle-3" x="49.9725796" y="0" width="11.7405458" height="10.8"></rect>
                        <rect id="Rectangle-3_1_" x="49.9725796" y="12.9" width="11.7405458" height="10.8"></rect>
                        <rect id="Rectangle-3_2_" x="36.1247563" y="12.9" width="11.7405458" height="10.8"></rect>
                        <rect id="Rectangle-3_3_" x="22.2769331" y="12.9" width="11.7405458" height="10.8"></rect>
                        <rect id="Rectangle-3_4_" x="8.42910981" y="25.5" width="11.7405458" height="10.8"></rect>
                        <rect id="Rectangle-3_5_" x="22.2769331" y="25.5" width="11.7405458" height="10.8"></rect>
                        <rect id="Rectangle-3_6_" x="36.1247563" y="25.5" width="11.7405458" height="10.8"></rect>
                        <rect id="Rectangle-3_7_" x="49.9725796" y="25.5" width="11.7405458" height="10.8"></rect>
                        <rect id="Rectangle-3_8_" x="63.8204029" y="25.5" width="11.7405458" height="10.8"></rect>
                    </g>
                </g>
            </g>
        </g>
    </g>
</svg>