<?xml version="1.0" encoding="UTF-8"?>
<svg width="178px" height="576px" viewBox="0 0 178 576" version="1.1" xmlns="http://www.w3.org/2000/svg" xmlns:xlink="http://www.w3.org/1999/xlink">
    <!-- Generator: Sketch 43.2 (39069) - http://www.bohemiancoding.com/sketch -->
    <title>Artboard Copy 3</title>
    <desc>Created with Sketch.</desc>
    <defs></defs>
    <g id="Page-1" stroke="none" stroke-width="1" fill="none" fill-rule="evenodd">
        <g id="Artboard-Copy-3" fill="#FFFFFF">
            <g id="Group-5" transform="translate(40.000000, 0.000000)" fill-rule="nonzero">
                <g id="Group-2">
                    <path d="M37.1472081,50.4716981 C37.1472081,43.8296226 42.5583756,38.4493396 49.2385787,38.4493396 C55.9086294,38.4493396 61.319797,43.8296226 61.319797,50.4716981 C61.319797,57.1036792 55.9086294,62.4839623 49.2385787,62.4839623 C42.5685279,62.4839623 37.1472081,57.1036792 37.1472081,50.4716981 Z M49.2385787,0 C25.5431472,0 5.66497462,16.1408491 0.0609137056,37.9648113 C0.0203045685,38.1263208 0,38.2878302 0,38.4493396 C0,39.7817925 1.08629442,40.8517925 2.41624365,40.8517925 L22.8730964,40.8517925 C23.8477157,40.8517925 24.680203,40.2764151 25.0659898,39.4486792 L25.0761421,39.4486792 C29.2791878,30.3536792 38.5177665,24.0245283 49.2385787,24.0245283 C63.9187817,24.0245283 75.8274112,35.8651887 75.8274112,50.4616038 C75.8274112,65.0580189 63.9187817,76.8986792 49.2385787,76.8986792 C38.5076142,76.8986792 29.2690355,70.5796226 25.0761421,61.4745283 L25.0659898,61.4745283 C24.680203,60.6467925 23.8477157,60.0714151 22.8730964,60.0714151 L2.41624365,60.0714151 C1.08629442,60.0714151 0,61.1515094 0,62.4738679 C0,62.6353774 0.0304568528,62.7968868 0.0609137056,62.9583962 C5.65482234,84.7924528 25.5431472,100.943396 49.2385787,100.943396 C77.2690355,100.943396 100,78.3421698 100,50.4716981 C100,22.6012264 77.2690355,0 49.2385787,0 Z" id="mark_1_"></path>
                </g>
            </g>
            <g id="container-engine-button-icon" transform="translate(40.000000, 417.000000)" fill-rule="nonzero">
                <path d="M97.442654,26.6521456 L52.5573461,0.686700448 C50.9744078,-0.228900149 49.0255923,-0.228900149 47.442654,0.686700448 L2.55734597,26.6521456 C0.97440758,27.5677462 0,29.2602776 0,31.0914788 L0,83.0242687 C0,84.8573696 0.97440758,86.5480015 2.55734597,87.4636018 L47.442654,113.430947 C49.0255923,114.346547 50.9744078,114.346547 52.5573461,113.430947 L97.442654,87.4636018 C99.0255927,86.5480015 100,84.8573696 100,83.0242687 L100,31.0914788 C100,29.2602776 99.0255927,27.5677462 97.442654,26.6521456 L97.442654,26.6521456 Z M91.2834127,78.0492522 L75.6246448,68.9901252 L75.6246448,45.1275218 L52.5004741,58.5044089 L52.5004741,85.2619814 L73.1241708,73.3287803 L88.784834,82.3879073 L50.0000001,104.825821 L11.2151659,82.3879073 L26.8758294,73.3287803 L47.4995261,85.2619814 L47.4995261,58.5044089 L24.3753555,45.1275218 L24.3753555,68.9901252 L8.71658767,78.0492522 L8.71658767,33.175325 L47.4995261,10.7374116 L47.4995261,28.8556657 L26.8758294,40.7869673 L50.0000001,54.1657538 L73.1241708,40.7869673 L52.5004741,28.8556657 L52.5004741,10.7374116 L91.2834127,33.175325 L91.2834127,78.0492522 L91.2834127,78.0492522 Z" id="Fill-4"></path>
            </g>
            <g id="Group-4" transform="translate(40.000000, 217.000000)">
                <path d="M50,0 C77.6061776,0 100,22.3938224 100,50 C100,77.6061776 77.6061776,100 50,100 C22.3938224,100 0,77.6061776 0,50 C0,22.3938224 22.3938224,0 50,0 Z M82.95876,65.2163822 C82.6143725,62.4655394 80.3184553,60.5670704 77.3720282,60.6058147 C72.9715203,60.6639311 69.2789202,62.9692149 66.8299418,64.4996133 C65.8733097,65.1001495 65.050606,65.5457085 64.3426982,65.8750348 C64.4957594,63.6278674 64.3618309,60.6833032 63.2138723,57.4481571 C61.8171893,53.5737305 59.9421903,51.1909582 58.6029053,49.8155368 C60.1526494,47.5296252 62.2763728,44.1976183 63.2712702,39.0446311 C64.1322391,34.647157 63.8643821,27.8087941 61.8937199,23.9731119 C61.4919344,23.1982266 60.8222919,22.6364347 59.9804556,22.4039691 C59.636068,22.3071085 58.9855581,22.1133871 57.703671,22.4814577 C55.7712741,18.432682 55.1016316,18.006495 54.5850502,17.6577966 C53.5136222,16.9603999 52.2508677,16.8054228 51.0646439,17.2509819 C49.4766345,17.8321458 48.1182168,19.3819164 46.8363297,22.1327593 C46.6450033,22.5395741 46.4728095,22.9270167 46.3197484,23.3144594 C43.8899027,23.4888086 40.063374,24.3799267 36.8299573,27.9250269 C36.4281718,28.370586 35.6437335,28.6999122 34.8210298,29.0098664 L34.8401624,29.0098664 C33.1564898,29.6104025 32.3911841,31.005196 31.4536846,33.5235733 C30.1526649,37.0493014 31.4919499,40.5169131 32.8121023,42.7640805 C31.0136338,44.3913397 28.6220534,46.9872054 27.359299,50.0286303 C25.7904222,53.786824 25.6182284,57.4675292 25.6756264,59.4628589 C24.3363413,60.8963967 22.2700159,63.5891231 22.0404242,66.6111758 C21.7343019,70.8343007 23.2457807,73.7013763 23.9154232,74.7474715 C24.1067496,75.0574256 24.3172087,75.3092633 24.5468004,75.5611011 C24.4702698,76.0841487 24.4511372,76.6459405 24.5659331,77.2271045 C24.8146574,78.5831538 25.6564937,79.6873653 26.9383808,80.3847621 C29.4638897,81.7408114 32.9842961,82.3219754 35.7011314,80.9465539 C36.6768962,81.9926491 38.456232,83 41.6896487,83 L41.8809751,83 C42.7036788,83 53.150102,82.4382082 56.1921922,81.682695 C57.5506099,81.3533687 58.4881094,80.7722047 59.100354,80.2491572 C61.0518836,79.6292489 66.447289,77.7695242 71.5365721,74.4375174 C75.133509,72.0741172 76.3771308,71.5704417 79.0557008,70.9117892 C81.6577403,70.2725089 83.284015,67.8703644 82.95876,65.2163822 Z" id="Combined-Shape" fill-rule="nonzero"></path>
                <text id="Yarn" font-family="ProximaNova-Light, Proxima Nova" font-size="34" font-weight="300">
                    <tspan x="18.21" y="142">Yarn</tspan>
                </text>
            </g>
            <text id="CircleCI" font-family="ProximaNova-Light, Proxima Nova" font-size="34" font-weight="300">
                <tspan x="32.159" y="142">CircleCI</tspan>
            </text>
            <text id="GKE" font-family="ProximaNova-Light, Proxima Nova" font-size="34" font-weight="300">
                <tspan x="58.363" y="569">GKE</tspan>
            </text>
        </g>
    </g>
</svg>