<?xml version="1.0" encoding="UTF-8"?>
<svg width="178px" height="576px" viewBox="0 0 178 576" version="1.1" xmlns="http://www.w3.org/2000/svg" xmlns:xlink="http://www.w3.org/1999/xlink">
    <!-- Generator: Sketch 43.2 (39069) - http://www.bohemiancoding.com/sketch -->
    <title>Artboard Copy 6</title>
    <desc>Created with Sketch.</desc>
    <defs></defs>
    <g id="Page-1" stroke="none" stroke-width="1" fill="none" fill-rule="evenodd">
        <g id="Artboard-Copy-6" fill="#FFFFFF">
            <g id="Group-4" transform="translate(52.000000, 325.000000)" font-size="34" font-family="ProximaNova-Light, Proxima Nova" font-weight="300">
                <text id="Rake">
                    <tspan x="0.535" y="34">Rake</tspan>
                </text>
            </g>
            <text id="Closure" font-family="ProximaNova-Light, Proxima Nova" font-size="34" font-weight="300">
                <tspan x="32.22" y="142">Closure</tspan>
            </text>
            <text id="Invision" font-family="ProximaNova-Light, Proxima Nova" font-size="34" font-weight="300">
                <tspan x="34.386" y="569">Invision</tspan>
            </text>
            <g id="Group-13" transform="translate(22.000000, 39.000000)" font-size="36" font-family="Helvetica-Bold, Helvetica" font-weight="bold">
                <text id="Closure">
                    <tspan x="0" y="35">Closure</tspan>
                </text>
            </g>
            <g id="Group-13-Copy" transform="translate(21.000000, 230.000000)" font-size="48" font-family="Helvetica-Bold, Helvetica" font-weight="bold">
                <text id="RAKE">
                    <tspan x="0" y="47">RAKE</tspan>
                </text>
            </g>
            <g id="invision" transform="translate(29.000000, 414.000000)" fill-rule="nonzero">
                <path d="M110.031066,0 C116.089102,0 121,4.91089844 121,10.9689336 L121,110.031066 C121,116.089102 116.089102,121 110.031066,121 L10.9689336,121 C4.91089844,121 0,116.089102 0,110.031066 L0,10.9689336 C0,4.91089844 4.91089844,0 10.9689336,0 L110.031066,0 Z M40.4381055,38.0700977 C44.4604102,38.0700977 47.8299766,34.9174805 47.8299766,30.7855195 C47.8299766,26.6563945 44.4604102,23.50425 40.4381055,23.50425 C36.4158008,23.50425 33.0471797,26.6563945 33.0471797,30.7855195 C33.0471797,34.9170078 36.4158008,38.0700977 40.4381055,38.0700977 Z M25.1117539,77.0736914 C24.6773828,78.9217773 24.4594883,80.917332 24.4594883,82.5451602 C24.4594883,88.9595781 27.9377656,93.2177383 35.3296367,93.2177383 C41.4599883,93.2177383 46.4299688,89.5773398 50.0084492,83.6989141 L47.8233594,92.4681055 L59.9966211,92.4681055 L66.9541211,64.5629531 C68.6934961,57.4976875 72.0630625,53.8303477 77.1724766,53.8303477 C81.1943086,53.8303477 83.6941875,56.3316445 83.6941875,60.4607695 C83.6941875,61.6570625 83.5854766,62.9601758 83.1506328,64.3738906 L79.5631719,77.2003633 C79.0196172,79.0484492 78.8031406,80.8974805 78.8031406,82.6354375 C78.8031406,88.724668 82.3891836,93.1785078 89.8897656,93.1785078 C96.3032383,93.1785078 101.411707,89.0498555 104.238191,79.1576328 L99.4558555,77.3114375 C97.0642148,83.9385508 94.998707,85.1367344 93.368043,85.1367344 C91.7373789,85.1367344 90.8676914,84.0505703 90.8676914,81.8777695 C90.8676914,80.8993711 91.0860586,79.8136797 91.4112461,78.5063125 L94.8904688,66.0102266 C95.7596836,63.0759766 96.0862891,60.4740039 96.0862891,58.0833086 C96.0862891,48.7351133 90.4333203,43.8563555 83.5854766,43.8563555 C77.1724766,43.8563555 70.6498203,49.6411953 67.3894375,55.7294805 L69.7801328,44.801668 L51.1933984,44.801668 L48.5843359,54.4268398 L57.2807383,54.4268398 L51.925543,75.8665273 C47.7203203,85.2147227 39.9956992,85.3664453 39.0262813,85.1494961 C37.434375,84.7902773 36.4162734,84.18575 36.4162734,82.1174063 C36.4162734,80.9239492 36.6336953,79.209625 37.17725,77.1426992 L45.3305703,44.801668 L24.6773828,44.801668 L22.0683203,54.4268398 L30.6550664,54.4268398 L25.1122266,77.0736914 L25.1117539,77.0736914 Z" id="Combined-Shape"></path>
            </g>
        </g>
    </g>
</svg>